<?xml version="1.0" encoding="UTF-8" standalone="no"?>
<!-- Created with Inkscape (http://www.inkscape.org/) -->

<svg
   xmlns:dc="http://purl.org/dc/elements/1.1/"
   xmlns:cc="http://creativecommons.org/ns#"
   xmlns:rdf="http://www.w3.org/1999/02/22-rdf-syntax-ns#"
   xmlns:svg="http://www.w3.org/2000/svg"
   xmlns="http://www.w3.org/2000/svg"
   xmlns:sodipodi="http://sodipodi.sourceforge.net/DTD/sodipodi-0.dtd"
   xmlns:inkscape="http://www.inkscape.org/namespaces/inkscape"
   width="210mm"
   height="297mm"
   viewBox="0 0 210 297"
   version="1.1"
   id="svg5126"
   inkscape:version="0.92.1 r15371"
   sodipodi:docname="loyolaLogo.svg">
  <defs
     id="defs5120" />
  <sodipodi:namedview
     id="base"
     pagecolor="#ffffff"
     bordercolor="#666666"
     borderopacity="1.0"
     inkscape:pageopacity="0.0"
     inkscape:pageshadow="2"
     inkscape:zoom="0.7"
     inkscape:cx="128.06617"
     inkscape:cy="578.23376"
     inkscape:document-units="mm"
     inkscape:current-layer="layer1"
     showgrid="false"
     inkscape:window-width="2880"
     inkscape:window-height="1526"
     inkscape:window-x="2869"
     inkscape:window-y="-11"
     inkscape:window-maximized="1" />
  <metadata
     id="metadata5123">
    <rdf:RDF>
      <cc:Work
         rdf:about="">
        <dc:format>image/svg+xml</dc:format>
        <dc:type
           rdf:resource="http://purl.org/dc/dcmitype/StillImage" />
        <dc:title></dc:title>
      </cc:Work>
    </rdf:RDF>
  </metadata>
  <g
     inkscape:label="Layer 1"
     inkscape:groupmode="layer"
     id="layer1">
    <path
       style="fill:#337ab7;fill-opacity:1;stroke-width:0.75966614"
       d="M 90.654158,272.35394 C 61.670763,262.54599 39.683789,250.47845 24.540041,236.06723 16.067621,228.00461 11.483784,222.01313 7.7970171,214.18253 2.3496151,202.61246 2.5329111,206.16901 2.5329111,112.03947 V 27.684522 H 53.400963 104.26901 l 0.21936,6.369281 0.21935,6.369309 7.59666,-6.356504 7.59668,-6.356475 7.21682,-5.8e-5 7.21683,-5.7e-5 -5.31766,5.120433 c -2.92473,2.816253 -9.69795,9.220189 -15.05161,14.231 l -9.73396,9.110539 0.23802,6.430522 0.23802,6.430552 22.26608,-20.674271 22.26606,-20.674271 h 7.171 c 3.94405,0 7.171,0.125183 7.171,0.27793 0,0.152747 -13.32919,12.544872 -29.62047,27.537883 l -29.62046,27.26001 -0.006,6.779503 -0.006,6.779484 1.70924,-1.528758 c 5.25003,-4.695641 64.67971,-59.62775 68.23271,-63.068944 l 4.23083,-4.09769 7.03301,0.22022 7.03301,0.220219 -44.13425,39.88246 -44.13424,39.882451 7.61965,0.21648 7.61965,0.21649 40.06423,-36.66351 C 181.63845,51.433826 201.46204,33.254208 203.6556,31.199592 l 3.98824,-3.735634 -0.003,7.516948 -0.003,7.51692 -35.72958,32.665637 -35.72959,32.665627 7.235,0.21734 7.23497,0.21735 28.07643,-25.856016 c 15.44257,-14.220808 28.26661,-25.856032 28.49837,-25.856032 0.2317,0 0.4214,3.015686 0.4214,6.701505 v 6.701504 l -20.45236,18.55738 c -11.24879,10.206571 -20.47871,18.813789 -20.51098,19.127149 -0.0322,0.31336 3.0361,0.56976 6.81853,0.56976 h 6.87719 l 13.4439,-12.283538 13.44387,-12.283494 0.24634,5.636429 0.24635,5.636441 -7.08334,6.638222 -7.08337,6.63819 7.02692,0.009 7.02692,0.009 -0.0115,45.39007 c -0.0115,50.73061 0.0115,50.45211 -5.28797,61.34304 -9.84412,20.23084 -34.69447,38.9813 -70.28759,53.03452 -9.73608,3.84408 -25.19844,8.87992 -27.25685,8.87711 -0.46794,-6.6e-4 -6.833172,-2.02559 -14.144952,-4.49988 z m 24.067462,-46.05343 c 4.73239,-2.31239 8.15918,-6.03759 10.74039,-11.67567 1.65257,-3.60971 1.96194,-5.54655 2.25032,-14.0885 0.18376,-5.44689 0.63821,-10.22821 1.00959,-10.62515 0.37136,-0.39691 0.67522,-1.50794 0.67522,-2.4689 0,-1.61142 -0.32479,-1.74725 -4.17814,-1.74725 -3.58091,0 -4.17817,0.20385 -4.17817,1.42634 0,0.78447 -0.54145,1.87566 -1.20317,2.42486 -1.52953,1.26937 -3.63299,0.0956 -3.97741,-2.21951 -0.23544,-1.58254 -0.57298,-1.63169 -11.2051,-1.63169 -10.049842,0 -10.962302,0.1137 -10.962302,1.3674 0,3.61349 -4.35426,4.39922 -5.05179,0.9116 -0.4386,-2.19301 -0.60983,-2.279 -4.53901,-2.279 -3.822635,0 -4.083195,0.11829 -4.083195,1.85435 0,1.01987 0.341845,2.06561 0.759655,2.32382 0.42758,0.26414 0.75966,3.92036 0.75966,8.36377 0,9.80189 0.93118,14.28268 4.03415,19.41219 6.27987,10.38123 18.305032,13.95022 29.149302,8.65134 z m -76.083917,1.14276 c 0.705277,-1.14118 -1.678979,-4.45888 -4.259193,-5.92674 -1.988464,-1.13122 -2.209487,-1.64682 -2.213823,-5.16448 l -0.0057,-3.90781 6.019312,-0.27334 c 7.004644,-0.3181 8.579429,-1.34897 11.461719,-7.50282 1.175748,-2.51025 2.236994,-3.77971 3.159819,-3.77971 1.962336,0 1.727991,1.21129 -1.322781,6.837 l -2.677748,4.93782 6.134103,5.69751 c 4.21713,3.91698 6.127642,6.23163 6.113487,7.40675 -0.0201,1.65377 0.213041,1.70924 7.179958,1.70924 h 7.200536 l -0.808122,-1.77361 c -0.444459,-0.97549 -1.72222,-2.31359 -2.839425,-2.97356 -3.087456,-1.82378 -11.819315,-11.2156 -11.050098,-11.88522 0.372019,-0.32384 2.284253,-1.18028 4.249403,-1.90319 7.258735,-2.6702 10.456539,-9.3916 7.571349,-15.91409 -1.897985,-4.29069 -4.299209,-5.87348 -9.181076,-6.05181 -2.117839,-0.0772 -3.853266,-0.36998 -3.85651,-0.65026 -0.0029,-0.28023 1.183012,-3.32874 2.636202,-6.77435 l 2.642116,-6.26474 -1.675247,-2.72148 -1.675275,-2.72147 1.946745,1.26498 c 1.764426,1.14652 2.474182,1.16441 7.57936,0.19093 7.916128,-1.50966 7.765161,-1.55374 9.279508,2.70999 1.354846,3.81462 3.533676,5.79801 5.528486,5.03252 0.79729,-0.30592 1.07939,-1.86299 1.07729,-5.94589 -0.006,-9.51196 -3.45813,-12.74824 -13.602151,-12.74824 -2.913463,0 -5.508493,-0.34187 -5.766727,-0.75969 -0.291051,-0.47093 1.104055,-0.75965 3.670766,-0.75965 3.7054,0 4.523428,-0.31661 7.7877,-3.01405 2.523792,-2.08554 4.686712,-3.1699 7.021182,-3.51998 4.11233,-0.61667 6.38941,-2.6727 6.06559,-5.47675 -0.23227,-2.01166 -0.33167,-2.04643 -6.46888,-2.26315 -6.666529,-0.23543 -9.395298,0.67838 -16.474642,5.51666 l -2.956252,2.02042 0.452613,-2.78927 c 0.67889,-4.18351 2.412795,-6.2536 7.151726,-8.53848 6.554844,-3.16045 7.907515,-6.52628 1.749668,-4.35369 -3.947125,1.39264 -3.82131,1.38911 -3.82131,0.10739 0,-0.57212 2.028631,-1.91999 4.508067,-2.99528 4.50284,-1.95283 6.61514,-4.23266 5.82631,-6.2884 -0.32522,-0.84745 -1.333,-0.98162 -4.541314,-0.60455 -3.167456,0.37228 -4.532156,0.19811 -5.886894,-0.75064 -2.195697,-1.53792 -3.912576,-1.55948 -6.764059,-0.085 l -2.224446,1.15031 0.363003,-2.28982 c 0.199547,-1.25939 0.525397,-3.31535 0.723853,-4.5688 0.618251,-3.90483 -1.501454,-2.68682 -6.304363,3.62254 -9.857907,12.94988 -16.086787,31.10667 -16.086787,46.89182 0,5.87985 -0.123748,6.36689 -1.914244,7.54011 -1.052832,0.68986 -2.933024,2.66064 -4.178168,4.37953 -2.02088,2.78975 -2.262317,2.92952 -2.248938,1.30202 0.0086,-1.00276 1.033797,-4.71252 2.278999,-8.2439 2.522589,-7.15397 2.854124,-11.8851 1.074051,-15.32739 -2.118558,-4.09686 -10.094952,-5.897 -14.002426,-3.16011 l -1.856476,1.30033 1.877349,0.45537 c 1.750329,0.42456 1.870488,0.76066 1.77594,4.96694 -0.07207,3.2078 -0.89532,6.53389 -2.848727,11.50981 -3.071846,7.82488 -3.450239,12.12962 -1.416755,16.11754 1.802642,3.53523 4.512805,5.3555 8.910217,5.98451 4.184026,0.5985 5.700296,2.42583 2.012898,2.42583 -3.484693,0 -6.010843,1.47082 -6.898238,4.01641 -0.438602,1.25818 -0.79747,6.74742 -0.79747,12.19829 0,9.72032 0.03905,9.95156 2.041293,12.04129 1.869167,1.951 2.505908,2.13065 7.551805,2.13065 3.030817,0 5.731103,-0.35689 6.000707,-0.79308 z M 67.864184,127.20076 c 1.486323,-0.96052 3.038675,-0.96052 3.038675,0 0,0.41781 -0.940073,0.75443 -2.08909,0.74803 -1.627901,-0.009 -1.837526,-0.17428 -0.949585,-0.74803 z m 115.990066,99.38386 c 1.6884,-1.58622 1.7582,-2.11055 1.7582,-13.21001 0,-13.40203 -0.44725,-14.56222 -5.89517,-15.29293 -3.9226,-0.52615 -4.51045,-2.50226 -0.7519,-2.52764 1.35789,-0.009 3.93653,-0.68277 5.73027,-1.49689 2.59003,-1.17549 3.5853,-2.21251 4.83515,-5.03798 1.94749,-4.40266 1.60347,-7.6953 -1.6633,-15.91893 -3.87592,-9.75705 -4.33011,-16.2725 -1.13435,-16.2725 1.93311,0 1.2989,-1.27678 -1.13503,-2.28494 -2.76598,-1.14569 -7.67475,-0.60599 -10.33355,1.13612 -4.45894,2.9216 -4.94259,8.60829 -1.48684,17.48164 0.97632,2.50688 2.00262,6.09632 2.28067,7.97648 l 0.50558,3.41851 -2.24245,-3.52394 c -1.23337,-1.93816 -3.23918,-4.11271 -4.45736,-4.83228 -2.08396,-1.23105 -2.19533,-1.54418 -1.88412,-5.2969 1.02317,-12.33803 -5.82123,-35.33775 -13.68318,-45.98067 -3.68401,-4.98709 -7.47673,-9.11599 -8.3738,-9.11599 -0.3566,0 -0.416,2.0539 -0.13207,4.56422 l 0.51638,4.5642 -2.18793,-1.14103 c -2.76864,-1.44392 -3.91407,-1.43318 -6.74589,0.0632 -1.65265,0.87333 -3.3751,1.07899 -6.26724,0.74835 -3.77092,-0.43111 -3.98763,-0.36243 -3.97661,1.25993 0.0172,2.58064 0.73689,3.2943 5.39868,5.35547 6.31806,2.79345 7.44589,5.32112 1.42666,3.19743 -6.07771,-2.14437 -4.88847,1.08226 1.63301,4.43057 4.34731,2.23206 6.1774,4.47166 7.0714,8.65365 l 0.52353,2.44889 -5.86992,-3.5884 c -5.73714,-3.50721 -6.03057,-3.59435 -12.9703,-3.85163 l -7.10037,-0.26329 v 2.71467 c 0,3.14676 1.67617,4.55148 6.42912,5.38803 1.84361,0.32447 4.38751,1.68268 6.5626,3.50375 3.21465,2.69148 3.96102,2.97389 7.85945,2.97389 2.6782,0 4.1299,0.28732 3.83799,0.75965 -0.25812,0.41782 -2.83535,0.75969 -5.72697,0.75969 -6.34987,0 -10.60981,1.55423 -12.35434,4.50746 -1.50128,2.54146 -1.84666,13.29092 -0.45468,14.15121 1.43278,0.8855 4.71723,-2.27142 5.82697,-5.60066 1.20782,-3.62343 1.2365,-3.62998 9.22565,-2.10639 5.10504,0.97356 5.81543,0.95568 7.58422,-0.19093 l 1.95159,-1.26498 -1.79187,2.52973 -1.79185,2.52974 2.45013,6.20643 c 1.34758,3.41352 2.59017,6.54827 2.76132,6.96608 0.18031,0.4401 -1.33308,0.8095 -3.59758,0.87815 -4.55249,0.13811 -7.24787,1.78668 -9.20917,5.633 -2.99266,5.86901 -0.57323,12.34725 5.79683,15.5216 2.09343,1.04321 4.25187,1.89673 4.79656,1.89673 2.05551,0 0.83649,2.22171 -3.79702,6.92025 -2.63304,2.67003 -5.88061,5.75528 -7.21682,6.85618 -3.87566,3.19306 -3.22437,3.69589 4.78737,3.69589 7.05196,0 7.21683,-0.0405 7.21683,-1.7708 0,-1.20609 1.81676,-3.5324 5.69748,-7.29531 3.13363,-3.03852 5.69751,-5.861 5.69751,-6.27221 0,-0.41118 -1.19648,-2.88712 -2.65883,-5.50207 -1.46238,-2.61493 -2.65885,-4.97797 -2.65885,-5.25119 0,-0.27305 0.76916,-0.47957 1.70927,-0.45861 1.32714,0.0296 2.18904,1.05077 3.85567,4.56816 2.63612,5.56343 4.70989,6.7887 11.48983,6.7887 h 4.97556 v 4.17817 c 0,2.29798 -0.3057,4.17817 -0.67933,4.17817 -1.38497,0 -5.39801,4.46227 -5.39801,6.00228 0,1.48107 0.41485,1.59437 5.83845,1.59437 4.94894,0 6.10631,-0.25152 7.59668,-1.65173 z m -45.34112,-99.38386 c 0,-0.96052 1.55236,-0.96052 3.03869,0 0.88794,0.57383 0.67834,0.73896 -0.94959,0.74803 -1.14899,0.006 -2.0891,-0.33022 -2.0891,-0.74803 z m -46.339632,56.80091 c 0,-1.10511 2.17154,-3.87626 6.25094,-7.97694 l 6.250932,-6.28357 6.28354,6.25093 c 4.19382,4.17202 6.28358,6.82496 6.28358,7.97694 0,1.21959 0.44581,1.72601 1.51934,1.72601 1.19619,0 1.51931,-0.50642 1.51931,-2.3813 0,-1.97689 -1.16811,-3.5725 -6.8777,-9.39467 l -6.87774,-7.01332 0.12719,-22.19703 c 0.0752,-13.13312 -0.16653,-22.4906 -0.59189,-22.91606 -0.39548,-0.39547 -1.20354,-0.5334 -1.79567,-0.30647 -0.90301,0.34604 -1.0389,4.05555 -0.84277,23.00481 l 0.23371,22.59222 -6.880902,6.82118 c -5.87535,5.8243 -6.88092,7.18426 -6.88092,9.30589 0,1.70224 0.35887,2.48475 1.13951,2.48475 0.67209,0 1.13949,-0.6946 1.13949,-1.69337 z M 41.663467,107.875 c 3.146956,-1.31489 5.683011,-5.18033 5.686916,-8.667948 0.0023,-1.88413 -0.668583,-3.2163 -2.583085,-5.130798 -1.85682,-1.856792 -2.316468,-2.745709 -1.630256,-3.152613 1.531803,-0.908297 2.696842,-3.683912 2.696842,-6.425027 0,-4.908425 -4.128297,-8.195466 -10.292891,-8.195466 -7.471612,0 -12.061193,4.783184 -10.28333,10.717108 0.478167,1.59606 1.572804,3.394555 2.432521,3.996727 l 1.563099,1.094838 -1.593706,0.505816 c -2.046031,0.649375 -3.856022,4.158015 -3.856022,7.474793 0,3.10676 2.358185,6.37066 5.633081,7.79655 3.104319,1.35161 8.974531,1.34492 12.226831,-0.0144 z m -8.734587,-7.24517 c -1.991536,-3.721188 2.10222,-7.02557 4.711634,-3.803098 1.223496,1.51095 1.265673,1.92346 0.339948,3.325078 -1.463498,2.21578 -3.993437,2.4552 -5.051582,0.47802 z m 0.449713,-13.808834 c -1.618771,-2.311098 -0.310432,-4.613985 2.44079,-4.296146 2.53482,0.292861 3.295769,3.412196 1.205292,4.940812 -1.838761,1.344516 -2.311328,1.260964 -3.646082,-0.644666 z m 61.073905,19.949374 c 8.762242,-6.27373 8.498492,-23.662584 -0.43601,-28.74549 -9.30636,-5.294426 -18.570361,2.145689 -18.548224,14.896499 0.0086,4.491353 2.399186,10.918001 4.802334,12.905861 3.84083,3.17711 10.44811,3.61651 14.1819,0.94313 z m -8.74681,-6.929358 c -1.74953,-1.93323 -2.38145,-8.727299 -1.15683,-12.437913 1.04855,-3.177132 3.95869,-4.456157 5.84566,-2.569189 2.44151,2.441507 2.87,9.823901 0.8056,13.879352 -1.53186,3.009368 -3.43761,3.400508 -5.49443,1.12775 z M 19.245557,92.635955 V 77.062805 H 14.35258 c -2.691156,0 -5.0716229,0.288984 -5.2899179,0.642197 -0.21821,0.353212 -0.624022,2.062483 -0.901608,3.79834 -0.459073,2.871007 -0.358639,3.156115 1.111749,3.156115 1.5792639,0 1.6164169,0.270753 1.6164169,11.774805 v 11.774848 h 4.178169 4.178168 z m 48.75406,0.490742 c 4.521496,-8.086406 8.220896,-14.837956 8.220896,-15.003393 0,-0.16538 -5.811431,-0.300842 -12.914326,-0.300842 H 50.391881 v 3.767619 3.767618 l 6.0109,0.220507 6.010928,0.220794 -6.390757,10.909552 c -3.514897,6.000248 -6.390757,11.058138 -6.390757,11.239778 0,0.18174 2.28299,0.22912 5.073259,0.10565 l 5.073231,-0.22452 z"
       id="path5682"
       inkscape:connector-curvature="0"
       sodipodi:nodetypes="cccscccccccccsccccccsssccccscccccccssccccccccsscscscccccccccccccccccccsssccssssscsscccccccsccscscccccccccccccccccscscccccccccscccccccssscccccccccccsscscscccscccscccccsccsccccscsccccccccccccccsccscssccccccccccccsccsssscsccscssssccsccsccccsssccccccccssccccccsscccsscccccccccccsccssccsccccsccsscccccssccccccsccc"
       inkscape:export-filename="C:\Users\Michael Dow\Documents\GitHub\michaelvdow.github.io\img\loyola.png"
       inkscape:export-xdpi="10.184849"
       inkscape:export-ydpi="10.184849" />
  </g>
</svg>
