<?xml version="1.0" encoding="UTF-8" standalone="no"?>
<!-- Created with Inkscape (http://www.inkscape.org/) -->

<svg
   xmlns:dc="http://purl.org/dc/elements/1.1/"
   xmlns:cc="http://creativecommons.org/ns#"
   xmlns:rdf="http://www.w3.org/1999/02/22-rdf-syntax-ns#"
   xmlns:svg="http://www.w3.org/2000/svg"
   xmlns="http://www.w3.org/2000/svg"
   xmlns:sodipodi="http://sodipodi.sourceforge.net/DTD/sodipodi-0.dtd"
   xmlns:inkscape="http://www.inkscape.org/namespaces/inkscape"
   width="210mm"
   height="297mm"
   viewBox="0 0 210 297"
   version="1.1"
   id="svg5690"
   sodipodi:docname="roboticsLogo.svg"
   inkscape:version="0.92.1 r15371"
   inkscape:export-filename="C:\Users\Michael Dow\Documents\GitHub\michaelvdow.github.io\img\robotics.png"
   inkscape:export-xdpi="12.905342"
   inkscape:export-ydpi="12.905342">
  <defs
     id="defs5684" />
  <sodipodi:namedview
     id="base"
     pagecolor="#ffffff"
     bordercolor="#666666"
     borderopacity="1.0"
     inkscape:pageopacity="0.0"
     inkscape:pageshadow="2"
     inkscape:zoom="1.4142136"
     inkscape:cx="156.42861"
     inkscape:cy="716.59973"
     inkscape:document-units="mm"
     inkscape:current-layer="layer1"
     showgrid="false"
     inkscape:window-width="2880"
     inkscape:window-height="1526"
     inkscape:window-x="2869"
     inkscape:window-y="-11"
     inkscape:window-maximized="1" />
  <metadata
     id="metadata5687">
    <rdf:RDF>
      <cc:Work
         rdf:about="">
        <dc:format>image/svg+xml</dc:format>
        <dc:type
           rdf:resource="http://purl.org/dc/dcmitype/StillImage" />
      </cc:Work>
    </rdf:RDF>
  </metadata>
  <g
     inkscape:label="Layer 1"
     inkscape:groupmode="layer"
     id="layer1">
    <path
       style="fill:#337ab7;stroke:#ffffff;stroke-width:1;stroke-linecap:butt;stroke-linejoin:miter;stroke-opacity:1;stroke-miterlimit:4;stroke-dasharray:none;fill-opacity:1"
       d="M 23.178101,18.709331 32.24953,17.906131 12.547521,129.69259 3.0508692,128.84215 Z"
       id="path6532"
       inkscape:connector-curvature="0"
       inkscape:export-filename="C:\Users\Michael Dow\Documents\GitHub\michaelvdow.github.io\img\robotics.png"
       inkscape:export-xdpi="12.905342"
       inkscape:export-ydpi="12.905342" />
    <path
       style="fill:#337ab7;stroke:#ffffff;stroke-width:1;stroke-linecap:butt;stroke-linejoin:miter;stroke-opacity:1;stroke-miterlimit:4;stroke-dasharray:none;fill-opacity:1"
       d="m 32.24953,17.906131 58.397321,55.042782 v 9.024181 l 9.307663,8.929687 -19.84375,9.024183 c 0,0 -10.063617,-3.590774 -16.016742,-9.780135 L 80.441493,82.398319 42.549381,47.199285 31.682565,104.50993 45.147967,98.604048 c 0,0 5.055431,9.827382 9.543898,12.378722 L 12.547521,129.69259 32.24953,17.906131"
       id="path6534"
       inkscape:connector-curvature="0"
       inkscape:export-filename="C:\Users\Michael Dow\Documents\GitHub\michaelvdow.github.io\img\robotics.png"
       inkscape:export-xdpi="12.905342"
       inkscape:export-ydpi="12.905342" />
    <path
       style="fill:#337ab7;stroke:#ffffff;stroke-width:1;stroke-linecap:butt;stroke-linejoin:miter;stroke-opacity:1;stroke-miterlimit:4;stroke-dasharray:none;fill-opacity:1"
       d="m 42.549381,47.199285 37.892112,35.199034 -16.347471,7.748508 c 0,0 -2.173362,-2.456842 -3.590772,-4.535713 L 70.992088,82.020343 41.557193,52.538198 Z"
       id="path6536"
       inkscape:connector-curvature="0"
       inkscape:export-filename="C:\Users\Michael Dow\Documents\GitHub\michaelvdow.github.io\img\robotics.png"
       inkscape:export-xdpi="12.905342"
       inkscape:export-ydpi="12.905342" />
    <path
       style="fill:#337ab7;stroke:#ffffff;stroke-width:1;stroke-linecap:butt;stroke-linejoin:miter;stroke-opacity:1;stroke-miterlimit:4;stroke-dasharray:none;fill-opacity:1"
       d="m 45.147967,98.604048 c 0,0 -1.766782,-4.485008 -2.117574,-5.854764 l -9.939085,4.476766 -1.408743,7.28388 z"
       id="path6538"
       inkscape:connector-curvature="0"
       inkscape:export-filename="C:\Users\Michael Dow\Documents\GitHub\michaelvdow.github.io\img\robotics.png"
       inkscape:export-xdpi="12.905342"
       inkscape:export-ydpi="12.905342" />
    <path
       style="fill:#337ab7;stroke:#ffffff;stroke-width:1;stroke-linecap:butt;stroke-linejoin:miter;stroke-opacity:1;stroke-miterlimit:4;stroke-dasharray:none;fill-opacity:1"
       d="m 47.281649,58.229756 c 0,0 -13.709203,19.254872 2.921749,38.153681 0,0 19.654762,26.741823 62.555062,17.859383 0,0 17.67038,-2.74033 30.75781,-17.339665 0,0 17.15067,-15.73326 3.35454,-39.262277 0,0 -3.71457,-5.132361 -5.68568,-6.535526 l -8.75308,8.986938 c 0,0 11.42577,13.630746 -0.46772,27.996483 0,0 -6.94901,12.093947 -32.005527,14.432557 0,0 -9.217461,0.61843 -19.848039,-2.594368 0,0 -10.299856,-3.68527 -16.016742,-9.780135 0,0 -2.409597,-2.622212 -3.590772,-4.535715 0,0 -3.165551,-4.79557 -3.661645,-10.701446 0,0 0.02363,-4.417597 0.685083,-6.37835 z"
       id="path6540"
       inkscape:connector-curvature="0"
       inkscape:export-filename="C:\Users\Michael Dow\Documents\GitHub\michaelvdow.github.io\img\robotics.png"
       inkscape:export-xdpi="12.905342"
       inkscape:export-ydpi="12.905342" />
    <path
       style="fill:#337ab7;stroke:#ffffff;stroke-width:1;stroke-linecap:butt;stroke-linejoin:miter;stroke-opacity:1;stroke-miterlimit:4;stroke-dasharray:none;fill-opacity:1"
       d="m 42.088722,78.358697 c 0,0 -0.597127,10.437514 0.941671,14.390585 0,0 1.349809,4.130249 2.117574,5.854766 0,0 2.108626,4.318182 5.349269,8.360642 0,0 1.807747,2.22305 4.194629,4.01808 0,0 9.284042,7.79576 16.985306,10.44159 0,0 7.724888,3.04744 14.599329,3.82701 0,0 11.953497,1.44104 20.50521,0.0945 0,0 9.66202,-1.41742 13.60714,-3.14193 0,0 10.60663,-4.38143 14.18136,-7.28798 0,0 8.11924,-5.30335 11.52102,-11.04387 3.40179,-5.740514 3.63802,-6.189361 5.55153,-13.441778 0,0 0.8032,-6.638208 0.51972,-12.378719 0,0 -0.23624,8.291851 -6.07125,15.922246 0,0 -5.5279,7.016181 -10.11086,9.780141 0,0 -5.5279,4.55934 -13.25279,7.55952 0,0 -4.93732,2.64583 -18.75707,4.27586 0,0 -13.58352,1.96075 -27.356027,-2.14974 0,0 -12.44959,-4.06325 -19.442149,-10.18174 0,0 -8.055617,-6.378349 -11.835379,-13.937874 0,0 -3.354539,-6.638207 -3.248233,-10.961309 z"
       id="path6542"
       inkscape:connector-curvature="0"
       inkscape:export-filename="C:\Users\Michael Dow\Documents\GitHub\michaelvdow.github.io\img\robotics.png"
       inkscape:export-xdpi="12.905342"
       inkscape:export-ydpi="12.905342" />
    <path
       style="fill:#337ab7;stroke:#ffffff;stroke-width:1;stroke-linecap:butt;stroke-linejoin:miter;stroke-opacity:1;stroke-miterlimit:4;stroke-dasharray:none;fill-opacity:1"
       d="m 60.753705,44.774405 c 0,0 12.144057,-8.135016 27.612281,-9.772041 0,0 16.336854,-1.503392 26.459684,1.804069 0,0 5.98016,1.23612 8.18513,2.505652 l -8.4524,8.886711 c 0,0 -6.48129,-3.107007 -21.515197,-2.873147 0,0 -17.405926,1.804069 -23.436196,7.784224 z"
       id="path6544"
       inkscape:connector-curvature="0"
       inkscape:export-filename="C:\Users\Michael Dow\Documents\GitHub\michaelvdow.github.io\img\robotics.png"
       inkscape:export-xdpi="12.905342"
       inkscape:export-ydpi="12.905342" />
    <path
       style="fill:#337ab7;stroke:#ffffff;stroke-width:1;stroke-linecap:butt;stroke-linejoin:miter;stroke-opacity:1;stroke-miterlimit:4;stroke-dasharray:none;fill-opacity:1"
       d="m 69.607007,53.109873 6.614919,6.180608 c 0,0 11.094009,-6.516047 30.701524,-3.326873 l 7.63495,-7.764812 c 0,0 -11.36747,-4.212307 -23.722563,-2.535039 0,0 -15.408743,1.686687 -21.22883,7.446116 z"
       id="path6546"
       inkscape:connector-curvature="0"
       inkscape:export-filename="C:\Users\Michael Dow\Documents\GitHub\michaelvdow.github.io\img\robotics.png"
       inkscape:export-xdpi="12.905342"
       inkscape:export-ydpi="12.905342" />
    <path
       style="fill:#337ab7;stroke:#ffffff;stroke-width:1;stroke-linecap:butt;stroke-linejoin:miter;stroke-opacity:1;stroke-miterlimit:4;stroke-dasharray:none;fill-opacity:1"
       d="m 127.64127,65.153156 4.79078,-5.060866 c 0,0 3.9263,4.564772 4.82399,11.510084 0,0 0.49609,3.118303 -0.59059,8.102865 0,0 -0.63783,-7.724889 -9.02418,-14.552083 z"
       id="path6548"
       inkscape:connector-curvature="0"
       inkscape:export-filename="C:\Users\Michael Dow\Documents\GitHub\michaelvdow.github.io\img\robotics.png"
       inkscape:export-xdpi="12.905342"
       inkscape:export-ydpi="12.905342" />
    <path
       style="fill:#337ab7;stroke:#ffffff;stroke-width:1;stroke-linecap:butt;stroke-linejoin:miter;stroke-opacity:1;stroke-miterlimit:4;stroke-dasharray:none;fill-opacity:1"
       d="m 90.646851,72.948913 26.464239,25.731911 c 0,0 -5.17945,1.948736 -6.82483,2.170076 L 90.646851,81.973094 Z"
       id="path6552"
       inkscape:connector-curvature="0"
       inkscape:export-filename="C:\Users\Michael Dow\Documents\GitHub\michaelvdow.github.io\img\robotics.png"
       inkscape:export-xdpi="12.905342"
       inkscape:export-ydpi="12.905342" />
    <path
       style="fill:#337ab7;stroke:#ffffff;stroke-width:1;stroke-linecap:butt;stroke-linejoin:miter;stroke-opacity:1;stroke-miterlimit:4;stroke-dasharray:none;fill-opacity:1"
       d="m 117.11109,98.680822 c 0,0 8.50726,-3.116855 13.05585,-8.308565 l -18.38146,-17.738344 32.23771,-33.477178 33.2369,32.202318 -30.95675,32.319887 c 0,0 -2.92848,5.3003 -11.73313,11.23702 L 145.82429,125.8963 198.57145,70.87536 143.44304,17.971097 90.646851,72.948913 Z"
       id="path6554"
       inkscape:connector-curvature="0"
       inkscape:export-filename="C:\Users\Michael Dow\Documents\GitHub\michaelvdow.github.io\img\robotics.png"
       inkscape:export-xdpi="12.905342"
       inkscape:export-ydpi="12.905342" />
    <path
       style="fill:#337ab7;stroke:#ffffff;stroke-width:1;stroke-linecap:butt;stroke-linejoin:miter;stroke-opacity:1;stroke-miterlimit:4;stroke-dasharray:none;fill-opacity:1"
       d="m 116.29844,76.969045 11.34283,-11.815889 4.79078,-5.060866 8.75308,-8.986938 2.81188,-2.996559 28.96062,27.73486 4.30246,-4.4846 -33.2369,-32.202318 -32.23771,33.477178 z"
       id="path6556"
       inkscape:connector-curvature="0"
       inkscape:export-filename="C:\Users\Michael Dow\Documents\GitHub\michaelvdow.github.io\img\robotics.png"
       inkscape:export-xdpi="12.905342"
       inkscape:export-ydpi="12.905342" />
    <path
       style="fill:#337ab7;stroke:#ffffff;stroke-width:1;stroke-linecap:butt;stroke-linejoin:miter;stroke-opacity:1;stroke-miterlimit:4;stroke-dasharray:none;fill-opacity:1"
       d="m 198.57145,70.87536 0.0115,8.990698 -52.78239,54.904682 -17.08353,-16.37026 c 0,0 4.46841,-2.28014 5.8532,-3.48452 l 11.25408,10.98034 z"
       id="path6558"
       inkscape:connector-curvature="0"
       inkscape:export-filename="C:\Users\Michael Dow\Documents\GitHub\michaelvdow.github.io\img\robotics.png"
       inkscape:export-xdpi="12.905342"
       inkscape:export-ydpi="12.905342" />
  </g>
</svg>
