<?xml version="1.0" encoding="UTF-8" standalone="no"?>
<!-- Created with Inkscape (http://www.inkscape.org/) -->

<svg
   xmlns:dc="http://purl.org/dc/elements/1.1/"
   xmlns:cc="http://creativecommons.org/ns#"
   xmlns:rdf="http://www.w3.org/1999/02/22-rdf-syntax-ns#"
   xmlns:svg="http://www.w3.org/2000/svg"
   xmlns="http://www.w3.org/2000/svg"
   xmlns:sodipodi="http://sodipodi.sourceforge.net/DTD/sodipodi-0.dtd"
   xmlns:inkscape="http://www.inkscape.org/namespaces/inkscape"
   width="210mm"
   height="297mm"
   viewBox="0 0 210 297"
   version="1.1"
   id="svg8"
   sodipodi:docname="uiucLogo.svg"
   inkscape:export-filename="C:\Users\Michael Dow\Documents\GitHub\michaelvdow.github.io\img\uiuc.png"
   inkscape:export-xdpi="10.122099"
   inkscape:export-ydpi="10.122099"
   inkscape:version="0.92.1 r15371">
  <defs
     id="defs2" />
  <sodipodi:namedview
     id="base"
     pagecolor="#ffffff"
     bordercolor="#666666"
     borderopacity="1.0"
     inkscape:pageopacity="0.0"
     inkscape:pageshadow="2"
     inkscape:zoom="0.7"
     inkscape:cx="322.48142"
     inkscape:cy="514.89499"
     inkscape:document-units="mm"
     inkscape:current-layer="layer1"
     showgrid="false"
     inkscape:window-width="2880"
     inkscape:window-height="1526"
     inkscape:window-x="2869"
     inkscape:window-y="-11"
     inkscape:window-maximized="1" />
  <metadata
     id="metadata5">
    <rdf:RDF>
      <cc:Work
         rdf:about="">
        <dc:format>image/svg+xml</dc:format>
        <dc:type
           rdf:resource="http://purl.org/dc/dcmitype/StillImage" />
      </cc:Work>
    </rdf:RDF>
  </metadata>
  <g
     inkscape:label="Layer 1"
     inkscape:groupmode="layer"
     id="layer1">
    <path
       style="fill:#337ab7;fill-opacity:1;stroke-width:0.71685487"
       d="M 38.534537,218.43403 V 194.41942 H 53.588489 68.642435 V 138.14628 81.873194 H 53.588489 38.534537 v -25.0899 -25.08993 h 63.441653 63.44166 v 24.73152 24.73146 h -13.62026 -13.62024 v 56.273086 56.27311 h 13.62024 13.62026 v 24.37308 24.37305 H 101.97619 38.534537 Z"
       id="path4509-9"
       inkscape:connector-curvature="0" />
    <path
       style="fill:#ffffff;stroke-width:0.683918"
       d="M 43.845221,216.9816 V 199.31965 H 57.796652 73.646235 V 138.1271 76.697314 H 57.796652 43.845221 v -18.4808 -20.6162 h 58.130969 58.13096 v 20.26419 18.12876 h -12.62274 -14.75814 v 61.429786 61.19253 h 14.75814 12.62274 v 18.01399 l -0.23728,21.09851 H 101.73893 43.607952 Z m 110.282749,0.35201 V 205.65617 H 140.84088 125.41837 V 137.42305 68.952634 h 14.7704 12.63496 l -0.17827,-10.91214 -0.17828,-13.04756 H 101.644 50.820937 l -0.178328,13.04756 -0.178327,10.91214 h 13.963673 15.86183 v 68.104376 67.86709 l -16.01567,0.19008 -14.117521,0.19008 -0.178955,10.95816 c -0.145309,8.89733 -0.270339,14.44558 -0.09203,14.938 0.258461,0.71379 10.834626,0.89528 52.164641,0.89528 h 51.84047 z"
       id="path4569"
       inkscape:connector-curvature="0"
       sodipodi:nodetypes="cccccccccccccccccccccccccccccccccccccccccccccscscc" />
  </g>
</svg>
