<?xml version="1.0" encoding="utf-8" standalone="no"?>
<!DOCTYPE svg PUBLIC "-//W3C//DTD SVG 1.1//EN"
  "http://www.w3.org/Graphics/SVG/1.1/DTD/svg11.dtd">
<!-- Created with matplotlib (http://matplotlib.org/) -->
<svg height="288pt" version="1.1" viewBox="0 0 432 288" width="432pt" xmlns="http://www.w3.org/2000/svg" xmlns:xlink="http://www.w3.org/1999/xlink">
 <defs>
  <style type="text/css">
*{stroke-linecap:butt;stroke-linejoin:round;}
  </style>
 </defs>
 <g id="figure_1">
  <g id="patch_1">
   <path d="
M0 288
L432 288
L432 0
L0 0
z
" style="fill:#ffffff;"/>
  </g>
  <g id="axes_1">
   <g id="patch_2">
    <path d="
M54 252
L388.8 252
L388.8 28.8
L54 28.8
z
" style="fill:#ffffff;"/>
   </g>
   <g id="line2d_1">
    <path clip-path="url(#p124b8dd147)" d="
M54 130.103
L54.7557 131.823
L55.4062 141.829
L56.0471 193.267
L56.7358 164.343
L56.8697 164.343
L57.415 195.925
L58.1898 185.919
L58.8498 194.362
L59.4907 199.99
L60.1412 208.433
L60.916 208.589
L61.5569 193.893
L62.1978 192.173
L62.9535 181.228
L63.5944 179.352
L64.2353 177.007
L65.0006 164.499
L65.6702 156.839
L66.3589 152.617
L67.0094 121.817
L67.6598 147.301
L68.406 142.455
L69.0564 152.93
L69.7069 180.603
L70.4722 176.069
L71.1226 186.857
L71.7635 172.786
L72.5001 186.232
L73.141 189.984
L73.7915 201.866
L74.5759 198.739
L75.1976 186.075
L75.9055 190.297
L76.556 182.948
L77.216 183.886
L77.9621 181.072
L78.603 182.323
L79.2535 174.818
L80.0283 161.685
L80.6788 156.839
L81.3197 156.682
L82.0658 173.568
L82.7163 152.304
L83.3572 164.499
L84.1033 147.77
L84.7538 159.027
L85.4616 162.154
L86.1025 160.904
L86.753 144.8
L87.4991 164.969
L88.1496 167.314
L88.7905 172.004
L88.9149 172.004
L89.594 173.88
L90.2349 160.434
L90.8854 176.694
L91.5263 179.352
L92.282 173.724
L92.9229 176.851
L93.5734 172.629
L94.3291 175.131
L94.9413 175.131
L95.0656 177.633
L95.6204 173.88
L96.3665 183.73
L97.017 170.128
L97.7823 170.753
L98.4232 169.972
L99.0736 159.809
L99.7528 168.721
L100.403 160.278
L101.169 155.275
L101.809 164.812
L102.46 162.311
L103.206 166.532
L103.857 167.47
L104.536 156.526
L105.196 174.193
L105.951 181.228
L106.592 168.095
L107.233 189.671
L107.979 176.851
L108.831 174.818
L109.29 161.529
L110.036 182.167
L110.686 177.476
L111.327 176.382
L112.724 172.16
L113.374 177.007
L114.14 177.007
L114.79 176.382
L115.431 176.538
L116.818 173.724
L117.469 167.314
L118.215 157.933
L118.903 172.004
L119.544 167.783
L120.329 172.786
L120.893 156.057
L121.534 157.464
L121.658 157.464
L122.309 153.399
L122.969 158.246
L123.648 156.369
L124.356 162.936
L124.997 173.568
L125.647 181.854
L126.393 183.73
L127.034 175.287
L127.675 194.205
L128.469 177.32
L129.11 193.736
L129.78 176.694
L130.44 195.612
L131.1 181.541
L131.846 178.102
L132.496 185.763
L133.175 174.037
L133.826 179.352
L134.553 179.04
L135.203 184.512
L135.959 174.818
L136.61 171.691
L137.25 165.75
L137.93 171.379
L138.676 165.125
L139.317 182.01
L139.967 155.9
L140.713 164.03
L141.354 159.34
L142.091 160.434
L142.789 172.004
L143.43 156.682
L144.09 187.795
L144.75 169.033
L145.486 165.438
L146.127 180.447
L146.778 186.075
L148.203 180.134
L148.844 174.349
L149.6 180.447
L150.241 179.04
L150.891 186.388
L151.637 182.636
L152.336 189.046
L152.986 179.352
L153.627 185.137
L154.383 178.102
L155.033 182.479
L155.674 178.727
L156.43 175.6
L157.109 180.134
L157.759 178.883
L158.4 176.225
L159.156 159.653
L159.797 159.184
L160.438 154.181
L161.193 185.45
L161.882 186.544
L162.523 149.334
L163.173 137.295
L163.929 172.786
L164.58 165.594
L165.23 186.388
L165.986 163.718
L166.665 157.777
L167.306 166.063
L167.966 194.362
L168.722 189.046
L169.372 158.558
L170.023 189.358
L170.75 178.571
L171.448 175.756
L172.089 189.046
L172.739 188.733
L173.495 178.727
L174.155 181.541
L174.872 190.14
L175.523 176.851
L176.202 184.668
L176.852 183.417
L177.599 182.948
L178.249 181.072
L178.89 171.379
L179.636 175.756
L180.287 171.379
L180.966 179.352
L181.702 155.9
L182.353 157.308
L182.994 156.682
L183.74 159.653
L184.39 155.119
L185.041 173.724
L185.825 179.978
L186.466 164.343
L187.116 182.167
L187.767 171.848
L187.891 171.848
L188.532 193.893
L189.183 176.225
L189.843 185.45
L190.551 178.258
L191.191 185.919
L191.325 185.919
L191.966 186.544
L192.617 181.228
L193.248 180.759
L194.004 187.013
L194.654 178.727
L195.333 189.046
L195.974 179.665
L196.73 185.919
L197.371 177.945
L198.031 167.157
L198.787 169.19
L199.428 164.03
L200.155 186.075
L200.805 152.304
L201.446 167.157
L202.202 132.449
L202.843 166.376
L203.493 148.239
L204.239 180.759
L204.928 160.904
L205.578 170.91
L206.344 170.753
L206.994 174.662
L207.635 180.603
L208.285 168.877
L209.032 187.951
L209.72 175.287
L210.371 178.883
L211.012 179.352
L211.691 176.538
L211.815 176.538
L212.456 178.102
L213.116 190.14
L213.747 172.942
L213.872 172.942
L214.446 187.795
L214.57 187.795
L215.106 175.6
L215.23 175.6
L215.871 185.137
L216.512 181.072
L217.162 182.479
L217.909 176.225
L218.559 172.004
L219.238 173.88
L219.984 159.027
L220.635 176.694
L221.276 161.06
L222.022 162.311
L222.672 153.712
L223.323 153.712
L224.117 174.037
L224.758 173.724
L225.408 165.594
L226.049 199.052
L226.805 174.818
L227.455 193.893
L228.106 175.287
L228.9 190.297
L229.54 193.267
L230.937 178.883
L231.597 194.205
L232.238 176.382
L233.673 188.733
L234.323 183.574
L234.964 186.701
L235.72 174.037
L237.002 169.659
L237.805 170.441
L238.379 167.001
L239.125 172.317
L239.776 164.343
L240.417 167.157
L241.163 153.555
L241.785 159.184
L242.54 157.933
L243.219 152.93
L243.918 179.978
L244.616 181.385
L245.257 184.824
L245.907 184.199
L246.663 192.173
L247.304 182.636
L248.002 189.828
L248.643 183.73
L249.389 200.146
L250.04 177.945
L250.681 179.821
L251.427 183.574
L252.077 174.662
L252.814 175.131
L253.464 181.698
L254.124 185.45
L254.775 177.945
L255.483 175.756
L256.238 159.809
L257.558 171.535
L258.209 172.317
L258.898 160.904
L259.653 171.066
L260.294 149.803
L260.935 164.812
L261.7 152.461
L262.38 152.93
L263.049 177.163
L263.69 175.131
L264.446 179.665
L265.087 177.945
L265.737 181.854
L266.493 189.828
L267.172 180.603
L267.822 187.17
L268.463 182.479
L269.209 189.202
L269.85 185.919
L270.596 177.163
L271.362 191.704
L271.907 187.013
L272.682 197.176
L273.323 177.633
L274.719 172.629
L275.37 174.975
L276.02 173.724
L276.709 161.998
L277.465 182.792
L278.106 178.727
L278.756 178.883
L279.512 172.942
L280.153 159.027
L280.803 160.904
L281.587 142.298
L282.238 165.594
L282.888 157.151
L283.529 184.981
L284.285 174.818
L284.926 192.016
L285.691 174.193
L286.342 198.114
L286.983 170.91
L287.633 185.606
L287.757 185.606
L288.398 190.922
L289.049 177.163
L289.69 187.951
L290.56 175.287
L291.115 159.809
L291.765 188.733
L292.512 165.75
L293.172 186.544
L293.812 178.571
L295.199 184.512
L295.907 177.789
L296.548 175.6
L297.294 173.724
L297.954 179.196
L298.605 169.346
L299.351 178.883
L299.992 163.092
L300.7 184.355
L301.341 167.314
L302.001 163.561
L302.756 167.157
L303.464 161.998
L304.105 168.877
L304.756 146.363
L305.435 170.284
L306.19 164.187
L306.841 172.629
L307.482 165.594
L308.228 197.958
L308.869 179.04
L309.653 178.883
L310.304 180.29
L310.945 180.29
L311.605 172.629
L312.351 181.854
L312.992 183.574
L313.642 176.382
L314.407 179.978
L315.058 177.476
L315.699 176.382
L316.445 177.163
L317.086 183.261
L317.746 174.662
L318.502 172.786
L319.171 162.936
L319.831 165.907
L320.491 180.29
L321.247 171.379
L321.897 171.222
L322.538 162.154
L323.294 168.408
L323.954 161.529
L324.604 159.809
L325.351 169.19
L325.992 148.709
L326.632 175.131
L327.388 154.806
L328.039 182.01
L328.689 168.877
L328.852 168.877
L329.387 183.574
L330.133 167.626
L330.765 184.199
L331.521 184.668
L332.161 179.509
L332.812 181.541
L333.577 184.355
L334.218 185.763
L334.869 176.694
L335.615 178.727
L336.256 181.228
L336.906 184.668
L337.652 184.824
L338.322 177.476
L338.972 181.228
L339.718 158.246
L340.369 178.571
L341.029 181.072
L341.746 174.193
L342.397 177.789
L343.172 160.278
L343.812 179.821
L345.209 164.499
L345.85 189.202
L346.5 176.694
L347.247 167.001
L347.907 163.561
L348.557 164.656
L349.313 160.278
L349.313 160.278" style="fill:none;stroke:#008000;stroke-linecap:square;"/>
   </g>
   <g id="line2d_2">
    <path clip-path="url(#p124b8dd147)" d="
M54 125.726
L54.7557 55.0573
L55.4062 91.6422
L56.0471 102.743
L56.7358 102.743
L56.8697 79.7599
L57.415 47.5526
L58.1898 41.4552
L58.8498 86.7955
L59.4907 89.297
L60.1412 71.1609
L60.916 78.0401
L61.5569 82.2615
L62.1978 80.229
L62.9535 84.6067
L63.5944 78.5092
L64.2353 69.4411
L65.0006 67.4086
L65.6702 71.1609
L66.3589 72.7244
L67.0094 63.1873
L67.6598 68.503
L68.406 72.8807
L69.0564 77.8838
L69.7069 67.4086
L70.4722 57.8715
L71.1226 59.2786
L71.7635 77.8838
L72.5001 78.1965
L73.141 76.9457
L73.7915 78.3528
L74.5759 74.6005
L75.1976 74.9132
L75.9055 78.1965
L76.556 70.8482
L77.216 80.8544
L77.9621 77.2584
L78.603 65.0634
L80.0283 54.2755
L80.6788 83.6686
L81.3197 74.4442
L82.0658 76.7894
L82.7163 59.7476
L83.3572 86.1701
L84.1033 55.0573
L84.7538 81.3234
L85.4616 48.4907
L86.1025 79.6036
L87.4991 58.6532
L88.1496 52.8684
L88.7905 52.8684
L88.9149 83.1995
L89.594 67.0959
L90.2349 75.5386
L90.8854 58.1842
L91.5263 86.1701
L92.282 71.6299
L92.9229 86.0138
L93.5734 75.3822
L94.3291 69.9101
L94.9413 69.9101
L95.0656 83.9813
L95.6204 67.4086
L96.3665 64.9071
L97.017 73.6624
L97.6579 73.6624
L97.7823 71.3172
L98.4232 70.2228
L99.0736 68.3467
L99.7528 68.8157
L100.403 67.8776
L101.169 61.3111
L101.809 61.1548
L102.46 65.3761
L103.206 67.4086
L103.857 77.102
L104.536 64.438
L105.196 66.3142
L105.951 65.3761
L106.592 71.0046
L107.233 72.568
L107.979 68.034
L108.831 80.8544
L109.29 75.5386
L110.036 82.4178
L110.686 86.9518
L111.327 66.6269
L112.083 73.1934
L112.724 71.1609
L113.374 68.6594
L114.14 74.6005
L115.431 70.8482
L116.177 71.4736
L117.469 65.6888
L118.215 59.4349
L118.903 60.9984
L119.544 74.6005
L120.329 72.8807
L120.893 65.3761
L121.534 65.3761
L121.658 68.3467
L122.309 70.8482
L122.969 67.2522
L123.648 64.7507
L124.356 61.1548
L124.997 59.904
L125.647 66.3142
L126.393 63.0309
L127.675 77.4147
L128.469 76.7894
L129.11 72.8807
L129.78 79.6036
L130.44 69.7538
L131.1 84.4503
L131.846 81.7924
L132.496 58.8096
L133.175 47.0836
L133.826 85.7011
L134.553 80.3853
L135.203 60.373
L135.959 60.5294
L136.61 72.099
L137.25 61.9365
L137.93 55.2136
L138.676 66.6269
L139.317 62.8746
L139.967 55.5263
L140.713 60.6857
L141.354 67.2522
L142.091 60.0603
L142.789 67.4086
L143.43 66.0015
L144.09 69.4411
L144.75 51.4613
L145.486 58.9659
L146.127 62.8746
L146.778 54.1192
L147.562 68.3467
L148.203 66.7832
L148.844 62.7182
L149.6 53.9628
L150.891 72.568
L151.637 65.6888
L152.336 70.8482
L152.986 63.1873
L153.627 63.8126
L154.383 69.1284
L155.033 72.4117
L155.674 72.2553
L156.43 73.3497
L157.109 67.0959
L157.759 58.9659
L158.4 67.4086
L159.156 66.1578
L159.797 55.0573
L160.438 65.5324
L161.193 72.4117
L161.882 64.7507
L162.523 44.113
L163.173 76.4767
L163.929 43.9567
L164.58 84.6067
L165.23 58.4969
L165.986 76.164
L166.665 76.7894
L167.306 84.4503
L168.722 45.0511
L169.372 55.9953
L170.023 79.7599
L170.75 81.7924
L171.448 68.1903
L172.089 76.4767
L172.739 69.1284
L174.155 77.102
L174.872 61.9365
L175.523 72.8807
L176.202 72.7244
L176.852 66.4705
L177.599 75.0695
L178.249 79.9163
L178.89 91.0168
L179.636 62.0928
L180.966 90.0788
L181.702 76.633
L182.353 72.4117
L182.994 87.4209
L183.74 84.4503
L184.39 65.2197
L185.041 69.2847
L185.825 83.8249
L186.466 91.4859
L187.116 70.3792
L187.767 70.3792
L187.891 54.5882
L188.532 80.5417
L189.183 90.2351
L189.843 61.9365
L190.551 67.8776
L191.191 67.8776
L191.325 88.5153
L191.966 66.4705
L193.248 80.5417
L194.004 64.9071
L194.654 55.2136
L195.333 69.4411
L195.974 78.8219
L197.371 43.8003
L198.031 51.6176
L198.787 67.0959
L199.428 58.0278
L200.155 55.5263
L200.805 58.9659
L201.446 63.3436
L202.202 56.7771
L202.843 63.4999
L203.493 67.5649
L204.239 65.0634
L204.928 75.2259
L205.578 57.2461
L206.219 57.2461
L206.344 55.839
L206.994 56.6207
L207.635 48.178
L208.285 59.4349
L209.032 67.0959
L209.72 64.5944
L210.371 67.2522
L211.012 71.0046
L211.691 71.0046
L211.815 69.1284
L212.456 73.1934
L213.116 81.6361
L213.747 81.6361
L213.872 70.2228
L214.446 70.2228
L214.57 60.6857
L215.106 60.6857
L215.23 57.5588
L215.871 76.0076
L216.512 77.5711
L217.162 44.113
L217.909 71.4736
L218.559 81.9488
L219.238 49.7415
L219.984 65.2197
L220.635 59.4349
L221.276 70.0665
L222.022 61.4674
L222.672 65.2197
L223.323 62.4055
L224.117 67.5649
L224.758 50.6796
L225.408 64.438
L226.049 56.6207
L226.805 57.0898
L227.455 81.3234
L228.106 71.1609
L228.9 53.1811
L229.54 67.4086
L230.181 71.7863
L230.937 68.1903
L231.597 75.5386
L232.238 73.5061
L232.994 67.0959
L233.673 77.7274
L234.323 70.6919
L234.964 67.8776
L235.72 79.6036
L236.361 65.5324
L237.002 53.9628
L237.681 53.9628
L237.805 68.3467
L238.379 63.4999
L239.125 73.9751
L239.776 69.7538
L240.417 64.5944
L241.163 66.3142
L241.785 64.5944
L242.54 61.6238
L243.219 66.4705
L243.918 58.6532
L244.616 57.4024
L245.257 61.4674
L245.907 58.4969
L246.663 59.4349
L247.304 75.6949
L248.002 66.3142
L248.643 43.4877
L249.389 67.5649
L250.04 70.8482
L250.681 58.8096
L251.427 58.4969
L252.814 73.8188
L253.464 64.9071
L254.124 73.3497
L254.775 73.9751
L255.483 73.5061
L256.238 71.4736
L256.879 62.8746
L257.558 64.2817
L258.209 73.037
L258.898 75.0695
L259.653 66.1578
L260.294 77.102
L260.935 80.229
L261.7 68.9721
L262.38 64.2817
L263.049 66.3142
L263.69 72.4117
L264.446 66.1578
L265.087 68.3467
L265.737 69.4411
L266.493 63.0309
L267.172 64.5944
L267.822 70.2228
L268.463 71.3172
L269.209 71.3172
L269.85 67.0959
L270.596 73.1934
L271.362 76.7894
L271.907 90.0788
L273.323 65.8451
L273.973 82.1051
L274.719 77.2584
L275.37 74.7569
L276.02 73.8188
L276.709 71.1609
L277.465 78.9782
L278.106 67.5649
L278.756 75.0695
L279.512 78.3528
L280.153 75.8513
L280.803 73.8188
L281.587 85.232
L282.238 66.7832
L282.888 66.6269
L283.529 68.8157
L284.285 68.8157
L284.926 54.9009
L285.691 65.0634
L286.342 86.7955
L286.983 63.8126
L287.633 63.8126
L287.757 70.5355
L288.398 79.7599
L289.049 67.0959
L289.69 79.6036
L290.56 77.7274
L291.115 61.9365
L291.765 60.373
L292.512 70.8482
L293.172 71.1609
L293.812 64.1253
L294.559 59.5913
L295.199 70.3792
L295.907 69.2847
L296.548 58.3405
L297.294 61.7801
L297.954 71.1609
L298.605 60.6857
L299.351 51.305
L299.992 67.2522
L300.7 73.8188
L301.341 66.0015
L302.001 73.1934
L302.756 68.9721
L303.464 63.969
L304.105 58.0278
L305.435 71.0046
L306.19 63.8126
L306.841 47.3963
L307.482 61.3111
L308.228 46.3019
L308.869 79.7599
L309.51 79.7599
L309.653 44.7384
L310.304 56.4644
L310.945 74.9132
L311.605 59.904
L312.351 66.3142
L312.992 61.4674
L313.642 64.9071
L314.407 67.8776
L315.058 73.5061
L315.699 54.9009
L316.445 73.3497
L317.086 92.1113
L317.746 66.9396
L318.502 63.4999
L319.171 74.9132
L319.831 75.8513
L320.491 67.0959
L321.247 59.5913
L321.897 66.1578
L322.538 71.0046
L323.294 74.2878
L323.954 64.9071
L324.604 62.0928
L325.351 73.1934
L325.992 74.9132
L326.632 60.5294
L327.388 60.6857
L328.039 68.034
L328.689 68.034
L328.852 58.8096
L329.387 39.11
L330.133 71.1609
L330.765 70.0665
L331.521 48.8034
L332.161 54.2755
L332.812 55.839
L333.577 68.034
L334.218 61.1548
L334.869 65.0634
L335.615 59.2786
L336.256 78.9782
L336.906 58.6532
L337.652 59.1223
L338.322 75.8513
L338.972 95.5509
L339.718 86.7955
L340.369 88.828
L341.029 79.7599
L341.746 77.4147
L342.397 92.1113
L343.172 83.1995
L343.812 66.7832
L344.463 89.7661
L345.209 68.8157
L345.85 89.9224
L346.5 71.3172
L347.247 66.4705
L348.557 87.4209
L349.313 77.102
L349.313 77.102" style="fill:none;stroke:#ff0000;stroke-linecap:square;"/>
   </g>
   <g id="line2d_3">
    <path clip-path="url(#p124b8dd147)" d="
M54 73.037
L54.7557 161.373
L55.4062 191.86
L56.0471 207.964
L56.7358 177.945
L56.8697 177.945
L57.415 230.008
L58.1898 205.462
L59.4907 219.533
L60.1412 205.462
L60.916 206.4
L61.5569 190.766
L62.1978 191.391
L62.9535 186.075
L63.5944 183.105
L64.2353 170.753
L65.0006 151.21
L65.6702 147.614
L66.3589 142.298
L67.0094 121.661
L67.6598 132.918
L68.406 138.39
L69.0564 171.379
L69.7069 195.612
L70.4722 182.323
L71.1226 201.553
L71.7635 209.371
L72.5001 209.996
L73.141 213.436
L73.7915 208.902
L74.5759 216.406
L75.1976 197.958
L75.9055 194.205
L76.556 183.73
L77.216 184.981
L77.9621 181.385
L78.603 181.698
L79.2535 177.32
L80.0283 158.871
L80.6788 167.314
L81.3197 143.393
L82.0658 128.54
L82.7163 137.921
L83.3572 145.425
L84.1033 149.803
L84.7538 165.907
L85.4616 177.945
L86.1025 182.479
L86.753 183.886
L87.4991 194.518
L88.1496 227.976
L88.7905 221.097
L88.9149 221.097
L89.594 226.569
L90.2349 217.032
L90.8854 223.755
L91.5263 210.465
L92.282 207.026
L92.9229 201.553
L93.5734 189.358
L94.3291 195.143
L94.9413 201.866
L95.0656 201.866
L95.6204 179.04
L96.3665 192.642
L97.017 173.724
L97.6579 176.538
L97.7823 176.538
L98.4232 156.839
L99.0736 155.275
L99.7528 151.679
L100.403 146.989
L101.169 143.705
L101.809 145.113
L102.46 144.018
L103.206 167.47
L103.857 166.219
L104.536 173.724
L105.196 191.391
L105.951 199.99
L106.592 198.114
L107.233 197.019
L107.979 202.492
L108.831 205.306
L109.29 205.775
L110.036 197.958
L110.686 211.091
L111.327 206.4
L112.083 193.736
L112.724 189.358
L113.374 190.609
L114.14 185.919
L114.79 183.574
L115.431 181.854
L116.177 174.818
L116.818 177.789
L117.469 169.503
L118.215 168.408
L118.903 168.252
L119.544 156.057
L120.329 167.157
L120.893 153.555
L121.534 150.272
L121.658 150.272
L122.309 140.891
L122.969 147.458
L123.648 163.874
L125.647 203.899
L127.034 192.016
L127.675 190.297
L128.469 192.173
L129.11 212.654
L129.78 191.547
L130.44 198.583
L131.846 184.355
L132.496 194.987
L133.175 192.016
L133.826 197.019
L134.553 180.29
L135.203 182.792
L135.959 169.972
L136.61 178.571
L137.25 166.063
L137.93 169.972
L138.676 161.685
L139.317 176.225
L139.967 150.116
L140.713 151.992
L141.354 145.113
L142.091 132.292
L142.789 157.62
L143.43 158.402
L144.09 189.984
L144.75 189.046
L145.486 186.544
L146.127 196.707
L146.778 182.636
L147.562 184.355
L148.203 190.922
L148.844 190.453
L149.6 201.866
L150.241 194.049
L150.891 204.368
L151.637 192.329
L152.336 195.769
L152.986 189.515
L153.627 190.922
L154.383 183.261
L155.033 190.297
L155.674 180.134
L156.43 171.379
L157.109 176.069
L157.759 176.225
L158.4 164.343
L159.156 152.617
L159.797 168.408
L160.438 139.484
L161.193 172.473
L161.882 165.125
L162.523 177.163
L163.173 155.275
L163.929 162.467
L164.58 147.301
L165.23 146.051
L165.986 162.467
L166.665 171.379
L167.306 184.199
L167.966 199.677
L168.722 199.365
L169.372 184.981
L170.023 206.557
L170.75 176.069
L171.448 205.775
L172.089 208.902
L172.739 177.476
L173.495 199.677
L174.155 197.488
L174.872 182.323
L175.523 184.668
L176.202 188.577
L177.599 181.698
L178.249 175.913
L178.89 167.626
L179.636 173.098
L180.287 154.337
L180.966 174.193
L181.702 140.266
L182.353 125.882
L182.994 132.292
L183.74 132.449
L184.39 126.976
L185.041 171.222
L185.825 174.662
L186.466 184.981
L187.116 193.111
L187.767 175.131
L187.891 175.131
L188.532 203.117
L189.183 180.603
L189.843 200.459
L190.551 187.482
L191.325 187.795
L191.966 185.45
L192.617 194.049
L193.248 191.704
L194.004 196.55
L194.654 193.893
L195.333 184.355
L195.974 186.544
L196.73 176.225
L197.371 169.346
L198.031 168.721
L198.787 172.786
L199.428 160.278
L200.155 178.258
L200.805 139.484
L201.446 152.617
L202.202 125.726
L202.843 146.676
L203.493 136.201
L204.239 200.459
L204.928 166.845
L205.578 213.748
L206.219 182.792
L206.344 182.792
L206.994 188.42
L207.635 207.182
L208.285 210.465
L209.032 193.58
L209.72 208.589
L210.371 198.27
L211.012 197.019
L211.691 185.606
L211.815 185.606
L212.456 187.482
L213.116 191.547
L213.747 179.821
L213.872 179.821
L214.446 187.326
L214.57 187.326
L215.106 174.193
L215.23 174.193
L215.871 177.945
L216.512 178.414
L217.162 172.942
L217.909 178.414
L218.559 171.222
L219.238 149.49
L219.984 155.431
L220.635 146.832
L221.276 143.549
L222.022 134.637
L222.672 134.95
L224.117 180.134
L224.758 167.626
L225.408 171.535
L226.049 208.276
L226.805 189.046
L227.455 193.893
L228.106 191.235
L228.9 196.081
L229.54 198.114
L230.181 195.143
L230.937 186.544
L231.597 206.557
L232.238 182.323
L232.994 188.42
L233.673 191.86
L234.323 179.196
L234.964 177.945
L235.72 178.258
L236.361 167.939
L237.002 160.278
L237.681 163.092
L237.805 163.092
L238.379 161.373
L239.125 151.366
L239.776 153.868
L240.417 159.027
L241.163 134.012
L241.785 144.174
L242.54 138.702
L243.219 154.181
L243.918 185.606
L244.616 184.981
L245.257 200.928
L245.907 197.645
L246.663 189.202
L247.304 187.795
L248.002 204.055
L248.643 178.883
L249.389 205.462
L250.04 191.86
L250.681 184.043
L251.427 184.668
L252.077 184.668
L252.814 184.199
L253.464 184.043
L254.124 182.948
L255.483 171.066
L256.238 160.434
L256.879 174.193
L257.558 164.187
L258.209 158.246
L258.898 162.311
L259.653 163.718
L260.294 146.207
L260.935 142.142
L261.7 131.198
L263.049 190.922
L263.69 187.639
L264.446 204.368
L265.087 199.834
L265.737 190.766
L266.493 188.42
L267.172 184.981
L267.822 200.146
L268.463 186.232
L269.209 201.241
L269.85 189.984
L270.596 181.385
L271.362 195.769
L271.907 190.297
L272.682 197.488
L273.323 175.287
L273.973 168.408
L274.719 174.037
L275.37 167.157
L276.02 175.287
L276.709 154.337
L277.465 172.004
L278.106 134.012
L278.756 180.447
L279.512 157.777
L280.153 150.116
L280.803 144.018
L281.587 108.371
L282.238 150.585
L282.888 163.874
L283.529 187.795
L284.285 186.544
L284.926 223.755
L286.342 187.013
L286.983 165.75
L287.633 203.742
L287.757 203.742
L288.398 203.43
L289.049 198.583
L289.69 190.14
L290.56 185.763
L291.115 169.972
L291.765 190.297
L292.512 173.568
L293.172 182.323
L293.812 171.222
L294.559 173.88
L295.199 186.232
L295.907 179.509
L296.548 177.476
L297.294 173.724
L297.954 181.072
L298.605 172.16
L299.351 180.916
L299.992 149.803
L300.7 160.904
L301.341 151.366
L302.001 171.066
L302.756 167.939
L303.464 156.057
L304.105 155.431
L304.756 136.044
L305.435 160.434
L306.19 151.992
L306.841 193.267
L307.482 204.211
L308.228 211.56
L308.869 189.671
L309.51 201.084
L309.653 201.084
L310.304 192.642
L310.945 213.905
L311.605 210.309
L312.351 209.683
L312.992 184.668
L313.642 180.603
L315.058 206.713
L315.699 201.553
L316.445 182.323
L317.086 184.512
L317.746 167.001
L318.502 174.818
L319.171 184.981
L319.831 175.756
L320.491 171.848
L321.247 159.34
L321.897 171.535
L322.538 163.249
L323.294 157.777
L323.954 154.024
L324.604 156.839
L325.351 151.992
L325.992 138.39
L326.632 166.845
L327.388 164.03
L328.039 207.338
L328.689 165.75
L328.852 165.75
L329.387 188.733
L330.133 194.518
L330.765 197.019
L331.521 187.639
L332.161 187.17
L332.812 200.459
L333.577 196.394
L334.218 185.45
L334.869 187.639
L335.615 181.385
L336.256 196.081
L336.906 191.235
L337.652 177.945
L338.322 174.349
L338.972 191.391
L339.718 165.125
L340.369 181.541
L341.029 174.506
L341.746 169.033
L342.397 175.913
L343.172 167.626
L343.812 170.753
L344.463 164.499
L345.209 162.467
L345.85 182.948
L346.5 171.535
L347.247 186.388
L347.907 191.235
L348.557 193.267
L349.313 171.848
L349.313 171.848" style="fill:none;stroke:#0000ff;stroke-linecap:square;"/>
   </g>
   <g id="patch_3">
    <path d="
M54 28.8
L388.8 28.8" style="fill:none;stroke:#000000;stroke-linecap:square;stroke-linejoin:miter;"/>
   </g>
   <g id="patch_4">
    <path d="
M54 252
L54 28.8" style="fill:none;stroke:#000000;stroke-linecap:square;stroke-linejoin:miter;"/>
   </g>
   <g id="patch_5">
    <path d="
M54 252
L388.8 252" style="fill:none;stroke:#000000;stroke-linecap:square;stroke-linejoin:miter;"/>
   </g>
   <g id="patch_6">
    <path d="
M388.8 252
L388.8 28.8" style="fill:none;stroke:#000000;stroke-linecap:square;stroke-linejoin:miter;"/>
   </g>
   <g id="matplotlib.axis_1">
    <g id="xtick_1">
     <g id="line2d_4">
      <defs>
       <path d="
M0 0
L0 -4" id="mc7db9fdffb" style="stroke:#000000;stroke-width:0.5;"/>
      </defs>
      <g>
       <use style="stroke:#000000;stroke-width:0.5;" x="54.0" xlink:href="#mc7db9fdffb" y="252.0"/>
      </g>
     </g>
     <g id="text_1">
      <!-- 0 -->
      <defs>
       <path d="
M31.7812 66.4062
Q24.1719 66.4062 20.3281 58.9062
Q16.5 51.4219 16.5 36.375
Q16.5 21.3906 20.3281 13.8906
Q24.1719 6.39062 31.7812 6.39062
Q39.4531 6.39062 43.2812 13.8906
Q47.125 21.3906 47.125 36.375
Q47.125 51.4219 43.2812 58.9062
Q39.4531 66.4062 31.7812 66.4062
M31.7812 74.2188
Q44.0469 74.2188 50.5156 64.5156
Q56.9844 54.8281 56.9844 36.375
Q56.9844 17.9688 50.5156 8.26562
Q44.0469 -1.42188 31.7812 -1.42188
Q19.5312 -1.42188 13.0625 8.26562
Q6.59375 17.9688 6.59375 36.375
Q6.59375 54.8281 13.0625 64.5156
Q19.5312 74.2188 31.7812 74.2188" id="BitstreamVeraSans-Roman-30"/>
      </defs>
      <g transform="translate(50.47265625 266.6378125)scale(0.14 -0.14)">
       <use xlink:href="#BitstreamVeraSans-Roman-30"/>
      </g>
     </g>
    </g>
    <g id="xtick_2">
     <g id="line2d_5">
      <g>
       <use style="stroke:#000000;stroke-width:0.5;" x="101.828571429" xlink:href="#mc7db9fdffb" y="252.0"/>
      </g>
     </g>
     <g id="text_2">
      <!-- 5 -->
      <defs>
       <path d="
M10.7969 72.9062
L49.5156 72.9062
L49.5156 64.5938
L19.8281 64.5938
L19.8281 46.7344
Q21.9688 47.4688 24.1094 47.8281
Q26.2656 48.1875 28.4219 48.1875
Q40.625 48.1875 47.75 41.5
Q54.8906 34.8125 54.8906 23.3906
Q54.8906 11.625 47.5625 5.09375
Q40.2344 -1.42188 26.9062 -1.42188
Q22.3125 -1.42188 17.5469 -0.640625
Q12.7969 0.140625 7.71875 1.70312
L7.71875 11.625
Q12.1094 9.23438 16.7969 8.0625
Q21.4844 6.89062 26.7031 6.89062
Q35.1562 6.89062 40.0781 11.3281
Q45.0156 15.7656 45.0156 23.3906
Q45.0156 31 40.0781 35.4375
Q35.1562 39.8906 26.7031 39.8906
Q22.75 39.8906 18.8125 39.0156
Q14.8906 38.1406 10.7969 36.2812
z
" id="BitstreamVeraSans-Roman-35"/>
      </defs>
      <g transform="translate(98.5265401786 266.6378125)scale(0.14 -0.14)">
       <use xlink:href="#BitstreamVeraSans-Roman-35"/>
      </g>
     </g>
    </g>
    <g id="xtick_3">
     <g id="line2d_6">
      <g>
       <use style="stroke:#000000;stroke-width:0.5;" x="149.657142857" xlink:href="#mc7db9fdffb" y="252.0"/>
      </g>
     </g>
     <g id="text_3">
      <!-- 10 -->
      <defs>
       <path d="
M12.4062 8.29688
L28.5156 8.29688
L28.5156 63.9219
L10.9844 60.4062
L10.9844 69.3906
L28.4219 72.9062
L38.2812 72.9062
L38.2812 8.29688
L54.3906 8.29688
L54.3906 0
L12.4062 0
z
" id="BitstreamVeraSans-Roman-31"/>
      </defs>
      <g transform="translate(141.983392857 266.6378125)scale(0.14 -0.14)">
       <use xlink:href="#BitstreamVeraSans-Roman-31"/>
       <use x="63.623046875" xlink:href="#BitstreamVeraSans-Roman-30"/>
      </g>
     </g>
    </g>
    <g id="xtick_4">
     <g id="line2d_7">
      <g>
       <use style="stroke:#000000;stroke-width:0.5;" x="197.485714286" xlink:href="#mc7db9fdffb" y="252.0"/>
      </g>
     </g>
     <g id="text_4">
      <!-- 15 -->
      <g transform="translate(189.958526786 266.6378125)scale(0.14 -0.14)">
       <use xlink:href="#BitstreamVeraSans-Roman-31"/>
       <use x="63.623046875" xlink:href="#BitstreamVeraSans-Roman-35"/>
      </g>
     </g>
    </g>
    <g id="xtick_5">
     <g id="line2d_8">
      <g>
       <use style="stroke:#000000;stroke-width:0.5;" x="245.314285714" xlink:href="#mc7db9fdffb" y="252.0"/>
      </g>
     </g>
     <g id="text_5">
      <!-- 20 -->
      <defs>
       <path d="
M19.1875 8.29688
L53.6094 8.29688
L53.6094 0
L7.32812 0
L7.32812 8.29688
Q12.9375 14.1094 22.625 23.8906
Q32.3281 33.6875 34.8125 36.5312
Q39.5469 41.8438 41.4219 45.5312
Q43.3125 49.2188 43.3125 52.7812
Q43.3125 58.5938 39.2344 62.25
Q35.1562 65.9219 28.6094 65.9219
Q23.9688 65.9219 18.8125 64.3125
Q13.6719 62.7031 7.8125 59.4219
L7.8125 69.3906
Q13.7656 71.7812 18.9375 73
Q24.125 74.2188 28.4219 74.2188
Q39.75 74.2188 46.4844 68.5469
Q53.2188 62.8906 53.2188 53.4219
Q53.2188 48.9219 51.5312 44.8906
Q49.8594 40.875 45.4062 35.4062
Q44.1875 33.9844 37.6406 27.2188
Q31.1094 20.4531 19.1875 8.29688" id="BitstreamVeraSans-Roman-32"/>
      </defs>
      <g transform="translate(237.384598214 266.6378125)scale(0.14 -0.14)">
       <use xlink:href="#BitstreamVeraSans-Roman-32"/>
       <use x="63.623046875" xlink:href="#BitstreamVeraSans-Roman-30"/>
      </g>
     </g>
    </g>
    <g id="xtick_6">
     <g id="line2d_9">
      <g>
       <use style="stroke:#000000;stroke-width:0.5;" x="293.142857143" xlink:href="#mc7db9fdffb" y="252.0"/>
      </g>
     </g>
     <g id="text_6">
      <!-- 25 -->
      <g transform="translate(285.359732143 266.6378125)scale(0.14 -0.14)">
       <use xlink:href="#BitstreamVeraSans-Roman-32"/>
       <use x="63.623046875" xlink:href="#BitstreamVeraSans-Roman-35"/>
      </g>
     </g>
    </g>
    <g id="xtick_7">
     <g id="line2d_10">
      <g>
       <use style="stroke:#000000;stroke-width:0.5;" x="340.971428571" xlink:href="#mc7db9fdffb" y="252.0"/>
      </g>
     </g>
     <g id="text_7">
      <!-- 30 -->
      <defs>
       <path d="
M40.5781 39.3125
Q47.6562 37.7969 51.625 33
Q55.6094 28.2188 55.6094 21.1875
Q55.6094 10.4062 48.1875 4.48438
Q40.7656 -1.42188 27.0938 -1.42188
Q22.5156 -1.42188 17.6562 -0.515625
Q12.7969 0.390625 7.625 2.20312
L7.625 11.7188
Q11.7188 9.32812 16.5938 8.10938
Q21.4844 6.89062 26.8125 6.89062
Q36.0781 6.89062 40.9375 10.5469
Q45.7969 14.2031 45.7969 21.1875
Q45.7969 27.6406 41.2812 31.2656
Q36.7656 34.9062 28.7188 34.9062
L20.2188 34.9062
L20.2188 43.0156
L29.1094 43.0156
Q36.375 43.0156 40.2344 45.9219
Q44.0938 48.8281 44.0938 54.2969
Q44.0938 59.9062 40.1094 62.9062
Q36.1406 65.9219 28.7188 65.9219
Q24.6562 65.9219 20.0156 65.0312
Q15.375 64.1562 9.8125 62.3125
L9.8125 71.0938
Q15.4375 72.6562 20.3438 73.4375
Q25.25 74.2188 29.5938 74.2188
Q40.8281 74.2188 47.3594 69.1094
Q53.9062 64.0156 53.9062 55.3281
Q53.9062 49.2656 50.4375 45.0938
Q46.9688 40.9219 40.5781 39.3125" id="BitstreamVeraSans-Roman-33"/>
      </defs>
      <g transform="translate(333.062522321 266.6378125)scale(0.14 -0.14)">
       <use xlink:href="#BitstreamVeraSans-Roman-33"/>
       <use x="63.623046875" xlink:href="#BitstreamVeraSans-Roman-30"/>
      </g>
     </g>
    </g>
    <g id="xtick_8">
     <g id="line2d_11">
      <g>
       <use style="stroke:#000000;stroke-width:0.5;" x="388.8" xlink:href="#mc7db9fdffb" y="252.0"/>
      </g>
     </g>
     <g id="text_8">
      <!-- 35 -->
      <g transform="translate(381.03765625 266.6378125)scale(0.14 -0.14)">
       <use xlink:href="#BitstreamVeraSans-Roman-33"/>
       <use x="63.623046875" xlink:href="#BitstreamVeraSans-Roman-35"/>
      </g>
     </g>
    </g>
    <g id="text_9">
     <!-- time (s) -->
     <defs>
      <path d="
M18.3125 70.2188
L18.3125 54.6875
L36.8125 54.6875
L36.8125 47.7031
L18.3125 47.7031
L18.3125 18.0156
Q18.3125 11.3281 20.1406 9.42188
Q21.9688 7.51562 27.5938 7.51562
L36.8125 7.51562
L36.8125 0
L27.5938 0
Q17.1875 0 13.2344 3.875
Q9.28125 7.76562 9.28125 18.0156
L9.28125 47.7031
L2.6875 47.7031
L2.6875 54.6875
L9.28125 54.6875
L9.28125 70.2188
z
" id="BitstreamVeraSans-Roman-74"/>
      <path d="
M44.2812 53.0781
L44.2812 44.5781
Q40.4844 46.5312 36.375 47.5
Q32.2812 48.4844 27.875 48.4844
Q21.1875 48.4844 17.8438 46.4375
Q14.5 44.3906 14.5 40.2812
Q14.5 37.1562 16.8906 35.375
Q19.2812 33.5938 26.5156 31.9844
L29.5938 31.2969
Q39.1562 29.25 43.1875 25.5156
Q47.2188 21.7812 47.2188 15.0938
Q47.2188 7.46875 41.1875 3.01562
Q35.1562 -1.42188 24.6094 -1.42188
Q20.2188 -1.42188 15.4531 -0.5625
Q10.6875 0.296875 5.42188 2
L5.42188 11.2812
Q10.4062 8.6875 15.2344 7.39062
Q20.0625 6.10938 24.8125 6.10938
Q31.1562 6.10938 34.5625 8.28125
Q37.9844 10.4531 37.9844 14.4062
Q37.9844 18.0625 35.5156 20.0156
Q33.0625 21.9688 24.7031 23.7812
L21.5781 24.5156
Q13.2344 26.2656 9.51562 29.9062
Q5.8125 33.5469 5.8125 39.8906
Q5.8125 47.6094 11.2812 51.7969
Q16.75 56 26.8125 56
Q31.7812 56 36.1719 55.2656
Q40.5781 54.5469 44.2812 53.0781" id="BitstreamVeraSans-Roman-73"/>
      <path id="BitstreamVeraSans-Roman-20"/>
      <path d="
M31 75.875
Q24.4688 64.6562 21.2812 53.6562
Q18.1094 42.6719 18.1094 31.3906
Q18.1094 20.125 21.3125 9.0625
Q24.5156 -2 31 -13.1875
L23.1875 -13.1875
Q15.875 -1.70312 12.2344 9.375
Q8.59375 20.4531 8.59375 31.3906
Q8.59375 42.2812 12.2031 53.3125
Q15.8281 64.3594 23.1875 75.875
z
" id="BitstreamVeraSans-Roman-28"/>
      <path d="
M52 44.1875
Q55.375 50.25 60.0625 53.125
Q64.75 56 71.0938 56
Q79.6406 56 84.2812 50.0156
Q88.9219 44.0469 88.9219 33.0156
L88.9219 0
L79.8906 0
L79.8906 32.7188
Q79.8906 40.5781 77.0938 44.375
Q74.3125 48.1875 68.6094 48.1875
Q61.625 48.1875 57.5625 43.5469
Q53.5156 38.9219 53.5156 30.9062
L53.5156 0
L44.4844 0
L44.4844 32.7188
Q44.4844 40.625 41.7031 44.4062
Q38.9219 48.1875 33.1094 48.1875
Q26.2188 48.1875 22.1562 43.5312
Q18.1094 38.875 18.1094 30.9062
L18.1094 0
L9.07812 0
L9.07812 54.6875
L18.1094 54.6875
L18.1094 46.1875
Q21.1875 51.2188 25.4844 53.6094
Q29.7812 56 35.6875 56
Q41.6562 56 45.8281 52.9688
Q50 49.9531 52 44.1875" id="BitstreamVeraSans-Roman-6d"/>
      <path d="
M9.42188 54.6875
L18.4062 54.6875
L18.4062 0
L9.42188 0
z

M9.42188 75.9844
L18.4062 75.9844
L18.4062 64.5938
L9.42188 64.5938
z
" id="BitstreamVeraSans-Roman-69"/>
      <path d="
M8.01562 75.875
L15.8281 75.875
Q23.1406 64.3594 26.7812 53.3125
Q30.4219 42.2812 30.4219 31.3906
Q30.4219 20.4531 26.7812 9.375
Q23.1406 -1.70312 15.8281 -13.1875
L8.01562 -13.1875
Q14.5 -2 17.7031 9.0625
Q20.9062 20.125 20.9062 31.3906
Q20.9062 42.6719 17.7031 53.6562
Q14.5 64.6562 8.01562 75.875" id="BitstreamVeraSans-Roman-29"/>
      <path d="
M56.2031 29.5938
L56.2031 25.2031
L14.8906 25.2031
Q15.4844 15.9219 20.4844 11.0625
Q25.4844 6.20312 34.4219 6.20312
Q39.5938 6.20312 44.4531 7.46875
Q49.3125 8.73438 54.1094 11.2812
L54.1094 2.78125
Q49.2656 0.734375 44.1875 -0.34375
Q39.1094 -1.42188 33.8906 -1.42188
Q20.7969 -1.42188 13.1562 6.1875
Q5.51562 13.8125 5.51562 26.8125
Q5.51562 40.2344 12.7656 48.1094
Q20.0156 56 32.3281 56
Q43.3594 56 49.7812 48.8906
Q56.2031 41.7969 56.2031 29.5938
M47.2188 32.2344
Q47.125 39.5938 43.0938 43.9844
Q39.0625 48.3906 32.4219 48.3906
Q24.9062 48.3906 20.3906 44.1406
Q15.875 39.8906 15.1875 32.1719
z
" id="BitstreamVeraSans-Roman-65"/>
     </defs>
     <g transform="translate(202.43828125 282.1478125)scale(0.1 -0.1)">
      <use xlink:href="#BitstreamVeraSans-Roman-74"/>
      <use x="39.208984375" xlink:href="#BitstreamVeraSans-Roman-69"/>
      <use x="66.9921875" xlink:href="#BitstreamVeraSans-Roman-6d"/>
      <use x="164.404296875" xlink:href="#BitstreamVeraSans-Roman-65"/>
      <use x="225.927734375" xlink:href="#BitstreamVeraSans-Roman-20"/>
      <use x="257.71484375" xlink:href="#BitstreamVeraSans-Roman-28"/>
      <use x="296.728515625" xlink:href="#BitstreamVeraSans-Roman-73"/>
      <use x="348.828125" xlink:href="#BitstreamVeraSans-Roman-29"/>
     </g>
    </g>
   </g>
   <g id="matplotlib.axis_2">
    <g id="ytick_1">
     <g id="line2d_12">
      <defs>
       <path d="
M0 0
L4 0" id="md7965d1ba0" style="stroke:#000000;stroke-width:0.5;"/>
      </defs>
      <g>
       <use style="stroke:#000000;stroke-width:0.5;" x="54.0" xlink:href="#md7965d1ba0" y="252.0"/>
      </g>
     </g>
     <g id="text_10">
      <!-- −12 -->
      <defs>
       <path d="
M10.5938 35.5
L73.1875 35.5
L73.1875 27.2031
L10.5938 27.2031
z
" id="BitstreamVeraSans-Roman-2212"/>
      </defs>
      <g transform="translate(23.33875 255.863125)scale(0.14 -0.14)">
       <use xlink:href="#BitstreamVeraSans-Roman-2212"/>
       <use x="83.7890625" xlink:href="#BitstreamVeraSans-Roman-31"/>
       <use x="147.412109375" xlink:href="#BitstreamVeraSans-Roman-32"/>
      </g>
     </g>
    </g>
    <g id="ytick_2">
     <g id="line2d_13">
      <g>
       <use style="stroke:#000000;stroke-width:0.5;" x="54.0" xlink:href="#md7965d1ba0" y="220.114285714"/>
      </g>
     </g>
     <g id="text_11">
      <!-- −10 -->
      <g transform="translate(22.86625 223.977410714)scale(0.14 -0.14)">
       <use xlink:href="#BitstreamVeraSans-Roman-2212"/>
       <use x="83.7890625" xlink:href="#BitstreamVeraSans-Roman-31"/>
       <use x="147.412109375" xlink:href="#BitstreamVeraSans-Roman-30"/>
      </g>
     </g>
    </g>
    <g id="ytick_3">
     <g id="line2d_14">
      <g>
       <use style="stroke:#000000;stroke-width:0.5;" x="54.0" xlink:href="#md7965d1ba0" y="188.228571429"/>
      </g>
     </g>
     <g id="text_12">
      <!-- −8 -->
      <defs>
       <path d="
M31.7812 34.625
Q24.75 34.625 20.7188 30.8594
Q16.7031 27.0938 16.7031 20.5156
Q16.7031 13.9219 20.7188 10.1562
Q24.75 6.39062 31.7812 6.39062
Q38.8125 6.39062 42.8594 10.1719
Q46.9219 13.9688 46.9219 20.5156
Q46.9219 27.0938 42.8906 30.8594
Q38.875 34.625 31.7812 34.625
M21.9219 38.8125
Q15.5781 40.375 12.0312 44.7188
Q8.5 49.0781 8.5 55.3281
Q8.5 64.0625 14.7188 69.1406
Q20.9531 74.2188 31.7812 74.2188
Q42.6719 74.2188 48.875 69.1406
Q55.0781 64.0625 55.0781 55.3281
Q55.0781 49.0781 51.5312 44.7188
Q48 40.375 41.7031 38.8125
Q48.8281 37.1562 52.7969 32.3125
Q56.7812 27.4844 56.7812 20.5156
Q56.7812 9.90625 50.3125 4.23438
Q43.8438 -1.42188 31.7812 -1.42188
Q19.7344 -1.42188 13.25 4.23438
Q6.78125 9.90625 6.78125 20.5156
Q6.78125 27.4844 10.7812 32.3125
Q14.7969 37.1562 21.9219 38.8125
M18.3125 54.3906
Q18.3125 48.7344 21.8438 45.5625
Q25.3906 42.3906 31.7812 42.3906
Q38.1406 42.3906 41.7188 45.5625
Q45.3125 48.7344 45.3125 54.3906
Q45.3125 60.0625 41.7188 63.2344
Q38.1406 66.4062 31.7812 66.4062
Q25.3906 66.4062 21.8438 63.2344
Q18.3125 60.0625 18.3125 54.3906" id="BitstreamVeraSans-Roman-38"/>
      </defs>
      <g transform="translate(31.8021875 192.091696429)scale(0.14 -0.14)">
       <use xlink:href="#BitstreamVeraSans-Roman-2212"/>
       <use x="83.7890625" xlink:href="#BitstreamVeraSans-Roman-38"/>
      </g>
     </g>
    </g>
    <g id="ytick_4">
     <g id="line2d_15">
      <g>
       <use style="stroke:#000000;stroke-width:0.5;" x="54.0" xlink:href="#md7965d1ba0" y="156.342857143"/>
      </g>
     </g>
     <g id="text_13">
      <!-- −6 -->
      <defs>
       <path d="
M33.0156 40.375
Q26.375 40.375 22.4844 35.8281
Q18.6094 31.2969 18.6094 23.3906
Q18.6094 15.5312 22.4844 10.9531
Q26.375 6.39062 33.0156 6.39062
Q39.6562 6.39062 43.5312 10.9531
Q47.4062 15.5312 47.4062 23.3906
Q47.4062 31.2969 43.5312 35.8281
Q39.6562 40.375 33.0156 40.375
M52.5938 71.2969
L52.5938 62.3125
Q48.875 64.0625 45.0938 64.9844
Q41.3125 65.9219 37.5938 65.9219
Q27.8281 65.9219 22.6719 59.3281
Q17.5312 52.7344 16.7969 39.4062
Q19.6719 43.6562 24.0156 45.9219
Q28.375 48.1875 33.5938 48.1875
Q44.5781 48.1875 50.9531 41.5156
Q57.3281 34.8594 57.3281 23.3906
Q57.3281 12.1562 50.6875 5.35938
Q44.0469 -1.42188 33.0156 -1.42188
Q20.3594 -1.42188 13.6719 8.26562
Q6.98438 17.9688 6.98438 36.375
Q6.98438 53.6562 15.1875 63.9375
Q23.3906 74.2188 37.2031 74.2188
Q40.9219 74.2188 44.7031 73.4844
Q48.4844 72.75 52.5938 71.2969" id="BitstreamVeraSans-Roman-36"/>
      </defs>
      <g transform="translate(31.725625 160.205982143)scale(0.14 -0.14)">
       <use xlink:href="#BitstreamVeraSans-Roman-2212"/>
       <use x="83.7890625" xlink:href="#BitstreamVeraSans-Roman-36"/>
      </g>
     </g>
    </g>
    <g id="ytick_5">
     <g id="line2d_16">
      <g>
       <use style="stroke:#000000;stroke-width:0.5;" x="54.0" xlink:href="#md7965d1ba0" y="124.457142857"/>
      </g>
     </g>
     <g id="text_14">
      <!-- −4 -->
      <defs>
       <path d="
M37.7969 64.3125
L12.8906 25.3906
L37.7969 25.3906
z

M35.2031 72.9062
L47.6094 72.9062
L47.6094 25.3906
L58.0156 25.3906
L58.0156 17.1875
L47.6094 17.1875
L47.6094 0
L37.7969 0
L37.7969 17.1875
L4.89062 17.1875
L4.89062 26.7031
z
" id="BitstreamVeraSans-Roman-34"/>
      </defs>
      <g transform="translate(31.629375 128.320267857)scale(0.14 -0.14)">
       <use xlink:href="#BitstreamVeraSans-Roman-2212"/>
       <use x="83.7890625" xlink:href="#BitstreamVeraSans-Roman-34"/>
      </g>
     </g>
    </g>
    <g id="ytick_6">
     <g id="line2d_17">
      <g>
       <use style="stroke:#000000;stroke-width:0.5;" x="54.0" xlink:href="#md7965d1ba0" y="92.5714285714"/>
      </g>
     </g>
     <g id="text_15">
      <!-- −2 -->
      <g transform="translate(32.24625 96.4345535714)scale(0.14 -0.14)">
       <use xlink:href="#BitstreamVeraSans-Roman-2212"/>
       <use x="83.7890625" xlink:href="#BitstreamVeraSans-Roman-32"/>
      </g>
     </g>
    </g>
    <g id="ytick_7">
     <g id="line2d_18">
      <g>
       <use style="stroke:#000000;stroke-width:0.5;" x="54.0" xlink:href="#md7965d1ba0" y="60.6857142857"/>
      </g>
     </g>
     <g id="text_16">
      <!-- 0 -->
      <g transform="translate(42.9453125 64.5488392857)scale(0.14 -0.14)">
       <use xlink:href="#BitstreamVeraSans-Roman-30"/>
      </g>
     </g>
    </g>
    <g id="ytick_8">
     <g id="line2d_19">
      <g>
       <use style="stroke:#000000;stroke-width:0.5;" x="54.0" xlink:href="#md7965d1ba0" y="28.8"/>
      </g>
     </g>
     <g id="text_17">
      <!-- 2 -->
      <g transform="translate(43.520625 32.663125)scale(0.14 -0.14)">
       <use xlink:href="#BitstreamVeraSans-Roman-32"/>
      </g>
     </g>
    </g>
   </g>
   <g id="text_18">
    <!-- Accelerometer Axes (Pushups) -->
    <defs>
     <path d="
M34.1875 63.1875
L20.7969 26.9062
L47.6094 26.9062
z

M28.6094 72.9062
L39.7969 72.9062
L67.5781 0
L57.3281 0
L50.6875 18.7031
L17.8281 18.7031
L11.1875 0
L0.78125 0
z
" id="BitstreamVeraSans-Roman-41"/>
     <path d="
M54.8906 54.6875
L35.1094 28.0781
L55.9062 0
L45.3125 0
L29.3906 21.4844
L13.4844 0
L2.875 0
L24.125 28.6094
L4.6875 54.6875
L15.2812 54.6875
L29.7812 35.2031
L44.2812 54.6875
z
" id="BitstreamVeraSans-Roman-78"/>
     <path d="
M18.1094 8.20312
L18.1094 -20.7969
L9.07812 -20.7969
L9.07812 54.6875
L18.1094 54.6875
L18.1094 46.3906
Q20.9531 51.2656 25.2656 53.625
Q29.5938 56 35.5938 56
Q45.5625 56 51.7812 48.0938
Q58.0156 40.1875 58.0156 27.2969
Q58.0156 14.4062 51.7812 6.48438
Q45.5625 -1.42188 35.5938 -1.42188
Q29.5938 -1.42188 25.2656 0.953125
Q20.9531 3.32812 18.1094 8.20312
M48.6875 27.2969
Q48.6875 37.2031 44.6094 42.8438
Q40.5312 48.4844 33.4062 48.4844
Q26.2656 48.4844 22.1875 42.8438
Q18.1094 37.2031 18.1094 27.2969
Q18.1094 17.3906 22.1875 11.75
Q26.2656 6.10938 33.4062 6.10938
Q40.5312 6.10938 44.6094 11.75
Q48.6875 17.3906 48.6875 27.2969" id="BitstreamVeraSans-Roman-70"/>
     <path d="
M54.8906 33.0156
L54.8906 0
L45.9062 0
L45.9062 32.7188
Q45.9062 40.4844 42.875 44.3281
Q39.8438 48.1875 33.7969 48.1875
Q26.5156 48.1875 22.3125 43.5469
Q18.1094 38.9219 18.1094 30.9062
L18.1094 0
L9.07812 0
L9.07812 75.9844
L18.1094 75.9844
L18.1094 46.1875
Q21.3438 51.125 25.7031 53.5625
Q30.0781 56 35.7969 56
Q45.2188 56 50.0469 50.1719
Q54.8906 44.3438 54.8906 33.0156" id="BitstreamVeraSans-Roman-68"/>
     <path d="
M30.6094 48.3906
Q23.3906 48.3906 19.1875 42.75
Q14.9844 37.1094 14.9844 27.2969
Q14.9844 17.4844 19.1562 11.8438
Q23.3438 6.20312 30.6094 6.20312
Q37.7969 6.20312 41.9844 11.8594
Q46.1875 17.5312 46.1875 27.2969
Q46.1875 37.0156 41.9844 42.7031
Q37.7969 48.3906 30.6094 48.3906
M30.6094 56
Q42.3281 56 49.0156 48.375
Q55.7188 40.7656 55.7188 27.2969
Q55.7188 13.875 49.0156 6.21875
Q42.3281 -1.42188 30.6094 -1.42188
Q18.8438 -1.42188 12.1719 6.21875
Q5.51562 13.875 5.51562 27.2969
Q5.51562 40.7656 12.1719 48.375
Q18.8438 56 30.6094 56" id="BitstreamVeraSans-Roman-6f"/>
     <path d="
M41.1094 46.2969
Q39.5938 47.1719 37.8125 47.5781
Q36.0312 48 33.8906 48
Q26.2656 48 22.1875 43.0469
Q18.1094 38.0938 18.1094 28.8125
L18.1094 0
L9.07812 0
L9.07812 54.6875
L18.1094 54.6875
L18.1094 46.1875
Q20.9531 51.1719 25.4844 53.5781
Q30.0312 56 36.5312 56
Q37.4531 56 38.5781 55.875
Q39.7031 55.7656 41.0625 55.5156
z
" id="BitstreamVeraSans-Roman-72"/>
     <path d="
M19.6719 64.7969
L19.6719 37.4062
L32.0781 37.4062
Q38.9688 37.4062 42.7188 40.9688
Q46.4844 44.5312 46.4844 51.125
Q46.4844 57.6719 42.7188 61.2344
Q38.9688 64.7969 32.0781 64.7969
z

M9.8125 72.9062
L32.0781 72.9062
Q44.3438 72.9062 50.6094 67.3594
Q56.8906 61.8125 56.8906 51.125
Q56.8906 40.3281 50.6094 34.8125
Q44.3438 29.2969 32.0781 29.2969
L19.6719 29.2969
L19.6719 0
L9.8125 0
z
" id="BitstreamVeraSans-Roman-50"/>
     <path d="
M9.42188 75.9844
L18.4062 75.9844
L18.4062 0
L9.42188 0
z
" id="BitstreamVeraSans-Roman-6c"/>
     <path d="
M8.5 21.5781
L8.5 54.6875
L17.4844 54.6875
L17.4844 21.9219
Q17.4844 14.1562 20.5 10.2656
Q23.5312 6.39062 29.5938 6.39062
Q36.8594 6.39062 41.0781 11.0312
Q45.3125 15.6719 45.3125 23.6875
L45.3125 54.6875
L54.2969 54.6875
L54.2969 0
L45.3125 0
L45.3125 8.40625
Q42.0469 3.42188 37.7188 1
Q33.4062 -1.42188 27.6875 -1.42188
Q18.2656 -1.42188 13.375 4.4375
Q8.5 10.2969 8.5 21.5781" id="BitstreamVeraSans-Roman-75"/>
     <path d="
M48.7812 52.5938
L48.7812 44.1875
Q44.9688 46.2969 41.1406 47.3438
Q37.3125 48.3906 33.4062 48.3906
Q24.6562 48.3906 19.8125 42.8438
Q14.9844 37.3125 14.9844 27.2969
Q14.9844 17.2812 19.8125 11.7344
Q24.6562 6.20312 33.4062 6.20312
Q37.3125 6.20312 41.1406 7.25
Q44.9688 8.29688 48.7812 10.4062
L48.7812 2.09375
Q45.0156 0.34375 40.9844 -0.53125
Q36.9688 -1.42188 32.4219 -1.42188
Q20.0625 -1.42188 12.7812 6.34375
Q5.51562 14.1094 5.51562 27.2969
Q5.51562 40.6719 12.8594 48.3281
Q20.2188 56 33.0156 56
Q37.1562 56 41.1094 55.1406
Q45.0625 54.2969 48.7812 52.5938" id="BitstreamVeraSans-Roman-63"/>
    </defs>
    <g transform="translate(130.4559375 23.8)scale(0.12 -0.12)">
     <use xlink:href="#BitstreamVeraSans-Roman-41"/>
     <use x="66.658203125" xlink:href="#BitstreamVeraSans-Roman-63"/>
     <use x="121.638671875" xlink:href="#BitstreamVeraSans-Roman-63"/>
     <use x="176.619140625" xlink:href="#BitstreamVeraSans-Roman-65"/>
     <use x="238.142578125" xlink:href="#BitstreamVeraSans-Roman-6c"/>
     <use x="265.92578125" xlink:href="#BitstreamVeraSans-Roman-65"/>
     <use x="327.44921875" xlink:href="#BitstreamVeraSans-Roman-72"/>
     <use x="366.3125" xlink:href="#BitstreamVeraSans-Roman-6f"/>
     <use x="427.494140625" xlink:href="#BitstreamVeraSans-Roman-6d"/>
     <use x="524.90625" xlink:href="#BitstreamVeraSans-Roman-65"/>
     <use x="586.4296875" xlink:href="#BitstreamVeraSans-Roman-74"/>
     <use x="625.638671875" xlink:href="#BitstreamVeraSans-Roman-65"/>
     <use x="687.162109375" xlink:href="#BitstreamVeraSans-Roman-72"/>
     <use x="728.275390625" xlink:href="#BitstreamVeraSans-Roman-20"/>
     <use x="760.0625" xlink:href="#BitstreamVeraSans-Roman-41"/>
     <use x="828.470703125" xlink:href="#BitstreamVeraSans-Roman-78"/>
     <use x="884.525390625" xlink:href="#BitstreamVeraSans-Roman-65"/>
     <use x="946.048828125" xlink:href="#BitstreamVeraSans-Roman-73"/>
     <use x="998.1484375" xlink:href="#BitstreamVeraSans-Roman-20"/>
     <use x="1029.935546875" xlink:href="#BitstreamVeraSans-Roman-28"/>
     <use x="1068.94921875" xlink:href="#BitstreamVeraSans-Roman-50"/>
     <use x="1127.501953125" xlink:href="#BitstreamVeraSans-Roman-75"/>
     <use x="1190.880859375" xlink:href="#BitstreamVeraSans-Roman-73"/>
     <use x="1242.98046875" xlink:href="#BitstreamVeraSans-Roman-68"/>
     <use x="1306.359375" xlink:href="#BitstreamVeraSans-Roman-75"/>
     <use x="1369.73828125" xlink:href="#BitstreamVeraSans-Roman-70"/>
     <use x="1433.21484375" xlink:href="#BitstreamVeraSans-Roman-73"/>
     <use x="1485.314453125" xlink:href="#BitstreamVeraSans-Roman-29"/>
    </g>
   </g>
   <g id="legend_1">
    <g id="patch_7">
     <path d="
M332.113 91.2412
L382.8 91.2412
L382.8 34.8
L332.113 34.8
z
" style="fill:#ffffff;stroke:#000000;stroke-linejoin:miter;"/>
    </g>
    <g id="line2d_20">
     <path d="
M340.513 44.5181
L357.313 44.5181" style="fill:none;stroke:#008000;stroke-linecap:square;"/>
    </g>
    <g id="line2d_21"/>
    <g id="text_19">
     <!-- X -->
     <defs>
      <path d="
M6.29688 72.9062
L16.8906 72.9062
L35.0156 45.7969
L53.2188 72.9062
L63.8125 72.9062
L40.375 37.8906
L65.375 0
L54.7812 0
L34.2812 31
L13.625 0
L2.98438 0
L29 38.9219
z
" id="BitstreamVeraSans-Roman-58"/>
     </defs>
     <g transform="translate(370.513125 48.718125)scale(0.12 -0.12)">
      <use xlink:href="#BitstreamVeraSans-Roman-58"/>
     </g>
    </g>
    <g id="line2d_22">
     <path d="
M340.513 62.1319
L357.313 62.1319" style="fill:none;stroke:#ff0000;stroke-linecap:square;"/>
    </g>
    <g id="line2d_23"/>
    <g id="text_20">
     <!-- Y -->
     <defs>
      <path d="
M-0.203125 72.9062
L10.4062 72.9062
L30.6094 42.9219
L50.6875 72.9062
L61.2812 72.9062
L35.5 34.7188
L35.5 0
L25.5938 0
L25.5938 34.7188
z
" id="BitstreamVeraSans-Roman-59"/>
     </defs>
     <g transform="translate(370.513125 66.331875)scale(0.12 -0.12)">
      <use xlink:href="#BitstreamVeraSans-Roman-59"/>
     </g>
    </g>
    <g id="line2d_24">
     <path d="
M340.513 79.7456
L357.313 79.7456" style="fill:none;stroke:#0000ff;stroke-linecap:square;"/>
    </g>
    <g id="line2d_25"/>
    <g id="text_21">
     <!-- Z -->
     <defs>
      <path d="
M5.60938 72.9062
L62.8906 72.9062
L62.8906 65.375
L16.7969 8.29688
L64.0156 8.29688
L64.0156 0
L4.5 0
L4.5 7.51562
L50.5938 64.5938
L5.60938 64.5938
z
" id="BitstreamVeraSans-Roman-5a"/>
     </defs>
     <g transform="translate(370.513125 83.945625)scale(0.12 -0.12)">
      <use xlink:href="#BitstreamVeraSans-Roman-5a"/>
     </g>
    </g>
   </g>
  </g>
 </g>
 <defs>
  <clipPath id="p124b8dd147">
   <rect height="223.2" width="334.8" x="54.0" y="28.8"/>
  </clipPath>
 </defs>
</svg>
