<?xml version="1.0" encoding="utf-8" standalone="no"?>
<!DOCTYPE svg PUBLIC "-//W3C//DTD SVG 1.1//EN"
  "http://www.w3.org/Graphics/SVG/1.1/DTD/svg11.dtd">
<!-- Created with matplotlib (http://matplotlib.org/) -->
<svg height="288pt" version="1.1" viewBox="0 0 432 288" width="432pt" xmlns="http://www.w3.org/2000/svg" xmlns:xlink="http://www.w3.org/1999/xlink">
 <defs>
  <style type="text/css">
*{stroke-linecap:butt;stroke-linejoin:round;}
  </style>
 </defs>
 <g id="figure_1">
  <g id="patch_1">
   <path d="
M0 288
L432 288
L432 0
L0 0
z
" style="fill:#ffffff;"/>
  </g>
  <g id="axes_1">
   <g id="patch_2">
    <path d="
M54 252
L388.8 252
L388.8 28.8
L54 28.8
z
" style="fill:#ffffff;"/>
   </g>
   <g id="line2d_1">
    <path clip-path="url(#p124b8dd147)" d="
M54 235.842
L54.7557 193.082
L55.4062 140.329
L56.0471 69.9229
L56.8697 139.774
L57.415 47.3162
L58.1898 85.7507
L58.8498 67.5715
L59.4907 53.3575
L60.1412 62.818
L60.916 60.9027
L61.5569 93.4366
L62.1978 94.9947
L62.9535 111.874
L63.5944 118.322
L64.2353 135.493
L65.0006 170.455
L65.6702 182.673
L66.3589 192.819
L67.0094 250.588
L67.6598 209.09
L68.406 208.453
L69.7069 103.939
L70.4722 124.091
L71.1226 90.7424
L71.7635 94.027
L72.5001 80.2381
L73.7915 65.3045
L74.5759 60.4552
L75.1976 94.8381
L75.9055 94.1472
L76.556 114.594
L77.216 110.84
L77.9621 118.44
L78.603 117.878
L79.2535 131.013
L80.0283 165.515
L80.6788 158.662
L81.3197 186.58
L82.0658 178.438
L82.7163 198.427
L83.3572 172.637
L84.1033 190.801
L84.7538 158.495
L85.4616 142.854
L86.1025 137.7
L86.753 152.352
L87.4991 120.857
L88.1496 75.9587
L88.7905 80.8186
L88.9149 79.0443
L89.594 72.2256
L90.2349 95.3615
L90.8854 73.4391
L92.282 96.6101
L92.9229 98.0073
L93.5734 118.459
L94.9413 101.664
L95.0656 97.2634
L95.6204 129.757
L96.3665 103.986
L97.017 139.136
L97.6579 135.311
L97.7823 135.574
L98.4232 157.782
L99.0736 171.23
L99.7528 164.604
L100.403 179.382
L101.169 188.902
L101.809 176.145
L102.46 180.103
L103.206 150.545
L103.857 149.724
L104.536 154.047
L105.196 115.22
L105.951 97.988
L106.592 112.838
L107.233 92.0991
L107.979 99.2458
L108.831 96.327
L109.29 108.792
L110.036 97.4711
L110.686 85.5846
L111.327 95.0265
L112.083 111.85
L112.724 119.264
L113.374 113.033
L114.79 121.376
L115.431 123.316
L116.177 132.582
L116.818 131.097
L117.469 147.437
L118.215 158.791
L118.903 143.747
L119.544 160.414
L120.329 143.29
L120.893 177.327
L121.534 179.25
L121.658 179.028
L122.309 193.16
L122.969 181.148
L123.648 165.507
L124.356 142.483
L125.647 92.5412
L126.393 98.4208
L127.034 112.933
L127.675 93.8426
L128.469 109.912
L129.11 69.6935
L129.78 110.833
L130.44 84.0097
L131.1 104.009
L131.846 117.145
L132.496 98.9375
L133.175 113.739
L133.826 100.585
L134.553 120.886
L135.203 113.895
L135.959 138.602
L136.61 131.898
L137.25 152.915
L137.93 142.273
L138.676 158.196
L139.317 123.745
L139.967 181.02
L140.713 169.858
L141.354 182.122
L142.091 193.353
L142.789 154.506
L143.43 171.109
L144.09 101.973
L144.75 122.653
L145.486 129.603
L146.127 102.396
L146.778 112.047
L147.562 113.712
L148.203 109.256
L148.844 115.945
L149.6 96.1279
L150.241 106.912
L150.891 86.7523
L151.637 105.038
L152.336 93.9856
L152.986 111.789
L153.627 104.016
L154.383 119.903
L155.033 106.997
L155.674 122.408
L156.43 135.273
L157.109 125.714
L157.759 127.113
L158.4 142.552
L159.156 173.939
L159.797 157
L160.438 193.87
L161.193 122.993
L161.882 129.724
L162.523 155.056
L163.173 193.269
L163.929 147.231
L164.58 169.319
L165.23 147.796
L165.986 157.609
L166.665 153.768
L167.306 128.922
L167.966 84.0868
L168.722 89.2069
L169.372 137.951
L170.023 80.1223
L170.75 125.454
L171.448 95.8414
L172.089 78.1437
L172.739 114.215
L173.495 99.7962
L174.155 99.019
L174.872 107.784
L175.523 119.138
L176.202 106.389
L176.852 111.533
L177.599 115.565
L178.249 123.142
L178.89 140.055
L179.636 133.83
L180.287 157.391
L180.966 124.564
L181.702 189.44
L182.353 201.823
L182.994 193.168
L183.74 190.322
L184.39 204.424
L185.041 137.735
L185.825 124.868
L186.466 127.744
L187.116 104.07
L187.767 135.374
L187.891 135.645
L188.532 79.0779
L189.183 120.916
L189.843 92.5412
L190.551 114.771
L191.325 103.051
L191.966 108.151
L192.617 103.6
L193.248 105.792
L194.004 95.2934
L194.654 106.958
L195.333 106.344
L195.974 113.053
L196.73 118.87
L198.031 147.551
L198.787 141.03
L199.428 160.618
L200.155 116.406
L200.805 195.906
L201.446 165.042
L202.202 233.114
L202.843 171.895
L203.493 203.71
L204.239 97.1593
L204.928 155.652
L205.578 90.4094
L206.219 128.085
L206.344 128.024
L206.994 117.478
L207.635 88.7096
L208.285 96.4174
L209.032 97.4342
L209.72 92.7124
L210.371 101.488
L211.012 102.204
L211.691 118.305
L211.815 118.46
L212.456 114.283
L213.116 95.6136
L213.872 128.727
L214.446 104.279
L214.57 104.668
L215.106 132.518
L215.23 132.466
L215.871 116.711
L217.162 124.811
L217.909 126.606
L218.559 137.481
L219.238 159.289
L219.984 171.193
L220.635 158.946
L221.276 180.727
L222.022 188.204
L222.672 198.413
L223.323 178.525
L224.117 127.323
L224.758 141.138
L225.408 146.208
L226.049 68.9215
L226.805 116.434
L227.455 88.8815
L228.106 112.957
L228.9 91.869
L229.54 86.4319
L230.181 96.4788
L230.937 114.815
L231.597 75.1632
L232.238 121.743
L233.673 97.2483
L234.323 117.599
L234.964 115.622
L235.72 127.869
L236.361 143.381
L237.002 153.722
L237.805 149.782
L238.379 155.769
L239.125 158.907
L239.776 166.299
L240.417 158.028
L241.163 199.292
L241.785 182.613
L242.54 189.612
L243.219 179.045
L243.918 114.835
L244.616 113.982
L245.257 92.1884
L245.907 96.6223
L246.663 97.5094
L247.304 108.516
L248.002 83.2307
L248.643 116.757
L249.389 70.6206
L250.04 109.35
L250.681 116.708
L251.427 111.92
L252.077 121.379
L252.814 120.75
L253.464 114.587
L254.124 111.024
L254.775 125.703
L255.483 134.619
L256.238 164.059
L256.879 142.661
L258.209 152.018
L258.898 160.285
L259.653 148.39
L260.294 189.597
L260.935 175.532
L261.7 202.916
L262.38 172.166
L263.049 111.465
L263.69 116.888
L264.446 93.0763
L265.737 106.511
L266.493 100.796
L267.172 114.636
L267.822 90.115
L268.463 110.765
L269.209 86.6314
L270.596 121.695
L271.362 89.5366
L271.907 98.1019
L272.682 81.574
L273.323 128.491
L273.973 136.221
L274.719 134.157
L275.37 139.345
L276.02 132.071
L276.709 168.063
L277.465 124.692
L278.106 166.857
L278.756 120.578
L280.153 175.157
L280.803 179.49
L281.587 231.346
L282.238 168.132
L282.888 163.321
L283.529 106.406
L284.285 118.644
L284.926 57.409
L285.691 97.5482
L286.342 90.0222
L286.983 146.294
L287.633 87.7378
L287.757 87.3756
L288.398 81.1627
L289.049 102.231
L289.69 99.2738
L290.56 117.973
L291.115 153.662
L291.765 99.7602
L292.512 142.767
L293.172 110.407
L293.812 131.722
L294.559 125.214
L295.199 108.434
L295.907 123.287
L297.294 134.457
L297.954 119.843
L298.605 140.967
L299.351 120.446
L299.992 171.694
L300.7 134.655
L301.341 165.209
L302.001 147.578
L302.756 147.652
L303.464 166.588
L304.105 159.335
L304.756 205.494
L305.435 151.988
L306.19 168.315
L306.841 112.35
L307.482 106.509
L308.228 64.9656
L308.869 109.123
L309.51 96.0147
L309.653 96.4715
L310.304 105.916
L310.945 79.8557
L311.605 92.3381
L312.351 84.1461
L312.992 111.46
L313.642 123.717
L314.407 103.53
L315.058 91.4427
L315.699 99.2847
L316.445 120.269
L317.086 107.573
L317.746 140.323
L318.502 134.076
L319.171 131.622
L319.831 139.262
L320.491 128.756
L321.247 152.29
L321.897 139.28
L322.538 157.936
L323.294 156.354
L323.954 169.076
L324.604 168.092
L325.351 161.466
L325.992 198.931
L326.632 140.081
L327.388 165.462
L328.039 86.6006
L328.689 148.016
L328.852 148.271
L329.387 104.773
L330.133 115.893
L330.765 96.3319
L331.521 106.211
L332.161 112.719
L332.812 95.3228
L333.577 97.0107
L334.218 108.03
L334.869 115.235
L335.615 120.206
L336.256 99.4034
L336.906 102.741
L338.322 128.206
L338.972 100.954
L339.718 156.805
L340.369 116.551
L341.029 123.373
L341.746 137.308
L342.397 122.588
L343.172 152.774
L343.812 130.284
L344.463 141.18
L345.209 156.252
L345.85 103.103
L346.5 132.606
L347.247 126.49
L347.907 122.976
L348.557 117.365
L349.313 149.161
L349.313 149.161" style="fill:none;stroke:#0000ff;stroke-linecap:square;"/>
   </g>
   <g id="line2d_2">
    <path clip-path="url(#p124b8dd147)" d="
M54 235.448
L56.0471 137.737
L56.7358 114.245
L56.8697 95.5976
L57.415 81.2658
L58.1898 71.1583
L58.8498 65.3352
L59.4907 63.8402
L60.1412 66.6938
L60.916 73.7207
L61.5569 84.4409
L62.9535 114.182
L64.2353 149.663
L65.6702 180.846
L66.3589 190.327
L67.0094 193.406
L67.6598 189.188
L68.406 178.128
L71.7635 94.6021
L72.5001 84.4629
L73.141 78.2876
L73.7915 76.2201
L74.5759 78.0771
L75.1976 83.2368
L75.9055 90.7721
L77.9621 120.442
L79.2535 143.372
L81.3197 172.891
L82.0658 177.962
L82.7163 179.55
L83.3572 177.465
L84.1033 171.891
L85.4616 152.614
L88.1496 102.597
L88.7905 93.0014
L88.9149 86.4013
L89.594 82.8827
L90.2349 82.1005
L90.8854 83.5286
L92.282 90.71
L93.5734 99.5513
L94.3291 103.617
L94.9413 107.664
L95.0656 112.183
L97.017 131.223
L97.6579 139.286
L97.7823 147.753
L99.0736 163.632
L99.7528 169.575
L100.403 173.249
L101.169 174.091
L101.809 171.792
L102.46 166.449
L103.206 158.557
L106.592 109.494
L107.233 103.416
L107.979 99.3564
L108.831 97.0875
L109.29 96.2864
L110.036 96.7298
L110.686 98.3737
L112.083 104.819
L115.431 126.908
L116.177 132.124
L119.544 160.729
L120.893 170.749
L121.658 173.962
L122.309 170.9
L122.969 164.245
L124.356 142.645
L125.647 119.21
L127.034 103.188
L127.675 98.414
L128.469 95.4859
L129.11 94.252
L129.78 94.549
L130.44 96.0947
L131.846 101.484
L133.175 108.52
L134.553 117.894
L137.25 142.527
L138.676 154.434
L139.317 159.832
L139.967 164.344
L140.713 167.096
L141.354 167.172
L142.091 164.049
L142.789 157.876
L145.486 123.844
L146.127 117.646
L146.778 112.842
L148.203 106.276
L148.844 103.867
L150.241 100.529
L150.891 100.001
L151.637 100.496
L152.336 102.05
L152.986 104.574
L154.383 111.971
L155.674 121.918
L156.43 127.631
L159.156 150.994
L159.797 154.754
L160.438 156.991
L161.882 159.128
L162.523 159.974
L163.173 160.174
L163.929 158.981
L164.58 155.986
L165.23 151.088
L165.986 144.378
L167.306 127.397
L167.966 119.084
L169.372 107.089
L170.023 103.377
L170.75 100.8
L171.448 99.2184
L172.089 98.6458
L172.739 99.0605
L173.495 100.291
L174.155 102.167
L174.872 104.598
L176.202 111.122
L177.599 121.188
L178.249 128.036
L180.287 154.201
L180.966 163.417
L181.702 171.436
L182.353 176.796
L182.994 178.241
L183.74 175.261
L184.39 168.227
L187.116 128.285
L187.767 121.015
L187.891 115.149
L188.532 110.569
L189.183 107.285
L189.843 105.156
L190.551 103.864
L191.191 103.069
L191.325 102.554
L191.966 102.267
L192.617 102.305
L193.248 102.907
L194.004 104.409
L194.654 107.123
L195.333 111.225
L196.73 123.457
L200.155 163.55
L200.805 170.153
L201.446 174.284
L202.202 174.639
L202.843 170.597
L204.239 152.298
L206.219 122.15
L206.344 114.644
L206.994 108.429
L207.635 103.644
L208.285 100.573
L209.032 99.3283
L209.72 99.764
L210.371 101.526
L211.691 106.89
L211.815 109.41
L212.456 111.462
L213.747 114.45
L213.872 115.502
L214.446 116.438
L214.57 117.578
L215.106 119.106
L215.23 121.069
L215.871 123.675
L216.512 127.347
L217.909 139.083
L219.984 162.884
L220.635 169.027
L221.276 172.662
L222.022 172.919
L222.672 169.238
L224.117 151.519
L226.049 117.381
L227.455 102.172
L228.106 97.8082
L228.9 95.2638
L229.54 94.324
L230.181 94.7652
L230.937 96.3049
L231.597 98.7352
L232.994 105.893
L233.673 110.612
L234.964 122.625
L235.72 129.6
L237.002 143.579
L237.681 149.955
L237.805 155.86
L238.379 161.354
L239.776 170.432
L240.417 172.974
L241.163 173.017
L241.785 169.632
L242.54 162.389
L243.918 139.083
L245.257 115.136
L245.907 106.481
L246.663 100.586
L247.304 97.2016
L248.002 95.9385
L248.643 96.452
L249.389 98.4532
L250.04 101.591
L252.077 113.002
L252.814 116.717
L254.124 125.288
L258.209 159.196
L258.898 163.671
L259.653 166.904
L260.294 167.996
L260.935 165.946
L261.7 160.14
L262.38 150.883
L263.69 128.102
L265.087 110.388
L265.737 105.022
L266.493 101.58
L267.172 99.5062
L267.822 98.3709
L268.463 97.9433
L269.209 98.1375
L269.85 98.9174
L270.596 100.283
L271.362 102.423
L272.682 110.507
L275.37 134.948
L276.709 144.97
L277.465 149.603
L279.512 164.459
L280.153 168.346
L280.803 169.476
L281.587 166.374
L282.238 158.558
L284.926 110.181
L285.691 102.845
L286.342 98.5185
L286.983 96.332
L287.633 95.6092
L287.757 96.3111
L288.398 98.6621
L289.049 102.581
L289.69 107.528
L290.56 112.65
L291.115 117.061
L291.765 120.236
L292.512 122.149
L293.172 123.055
L293.812 123.319
L294.559 123.365
L295.199 123.655
L295.907 124.563
L296.548 126.236
L297.294 128.668
L297.954 131.859
L299.351 140.38
L300.7 150.034
L302.001 158.279
L302.756 161.238
L303.464 162.784
L304.105 162.082
L304.756 158.282
L305.435 151.038
L306.19 140.895
L307.482 117.786
L308.869 100.979
L309.51 96.2697
L309.653 93.5216
L310.304 92.3006
L310.945 92.3658
L311.605 93.5979
L312.351 95.7782
L313.642 101.173
L314.407 103.776
L315.058 106.599
L316.445 114.272
L317.746 123.911
L319.831 137.504
L322.538 156.101
L323.294 160.169
L323.954 163.093
L324.604 164.312
L325.351 163.368
L325.992 160.021
L327.388 147.445
L328.689 132.681
L328.852 125.779
L329.387 119.335
L330.765 109.192
L331.521 106.029
L332.161 104.139
L332.812 103.405
L333.577 103.714
L334.218 104.84
L335.615 108.25
L336.256 110.3
L337.652 115.713
L339.718 125.296
L341.029 130.229
L342.397 133.536
L343.172 134.286
L343.812 134.226
L344.463 133.402
L345.85 131.071
L346.5 131.063
L347.247 132.759
L347.907 136.474
L349.313 149.032
L349.313 149.032" style="fill:none;stroke:#ff0000;stroke-linecap:square;"/>
   </g>
   <g id="patch_3">
    <path d="
M54 252
L388.8 252" style="fill:none;stroke:#000000;stroke-linecap:square;stroke-linejoin:miter;"/>
   </g>
   <g id="patch_4">
    <path d="
M54 28.8
L388.8 28.8" style="fill:none;stroke:#000000;stroke-linecap:square;stroke-linejoin:miter;"/>
   </g>
   <g id="patch_5">
    <path d="
M388.8 252
L388.8 28.8" style="fill:none;stroke:#000000;stroke-linecap:square;stroke-linejoin:miter;"/>
   </g>
   <g id="patch_6">
    <path d="
M54 252
L54 28.8" style="fill:none;stroke:#000000;stroke-linecap:square;stroke-linejoin:miter;"/>
   </g>
   <g id="matplotlib.axis_1">
    <g id="xtick_1">
     <g id="line2d_3">
      <defs>
       <path d="
M0 0
L0 -4" id="mc7db9fdffb" style="stroke:#000000;stroke-width:0.5;"/>
      </defs>
      <g>
       <use style="stroke:#000000;stroke-width:0.5;" x="54.0" xlink:href="#mc7db9fdffb" y="252.0"/>
      </g>
     </g>
     <g id="text_1">
      <!-- 0 -->
      <defs>
       <path d="
M31.7812 66.4062
Q24.1719 66.4062 20.3281 58.9062
Q16.5 51.4219 16.5 36.375
Q16.5 21.3906 20.3281 13.8906
Q24.1719 6.39062 31.7812 6.39062
Q39.4531 6.39062 43.2812 13.8906
Q47.125 21.3906 47.125 36.375
Q47.125 51.4219 43.2812 58.9062
Q39.4531 66.4062 31.7812 66.4062
M31.7812 74.2188
Q44.0469 74.2188 50.5156 64.5156
Q56.9844 54.8281 56.9844 36.375
Q56.9844 17.9688 50.5156 8.26562
Q44.0469 -1.42188 31.7812 -1.42188
Q19.5312 -1.42188 13.0625 8.26562
Q6.59375 17.9688 6.59375 36.375
Q6.59375 54.8281 13.0625 64.5156
Q19.5312 74.2188 31.7812 74.2188" id="BitstreamVeraSans-Roman-30"/>
      </defs>
      <g transform="translate(50.47265625 266.6378125)scale(0.14 -0.14)">
       <use xlink:href="#BitstreamVeraSans-Roman-30"/>
      </g>
     </g>
    </g>
    <g id="xtick_2">
     <g id="line2d_4">
      <g>
       <use style="stroke:#000000;stroke-width:0.5;" x="101.828571429" xlink:href="#mc7db9fdffb" y="252.0"/>
      </g>
     </g>
     <g id="text_2">
      <!-- 5 -->
      <defs>
       <path d="
M10.7969 72.9062
L49.5156 72.9062
L49.5156 64.5938
L19.8281 64.5938
L19.8281 46.7344
Q21.9688 47.4688 24.1094 47.8281
Q26.2656 48.1875 28.4219 48.1875
Q40.625 48.1875 47.75 41.5
Q54.8906 34.8125 54.8906 23.3906
Q54.8906 11.625 47.5625 5.09375
Q40.2344 -1.42188 26.9062 -1.42188
Q22.3125 -1.42188 17.5469 -0.640625
Q12.7969 0.140625 7.71875 1.70312
L7.71875 11.625
Q12.1094 9.23438 16.7969 8.0625
Q21.4844 6.89062 26.7031 6.89062
Q35.1562 6.89062 40.0781 11.3281
Q45.0156 15.7656 45.0156 23.3906
Q45.0156 31 40.0781 35.4375
Q35.1562 39.8906 26.7031 39.8906
Q22.75 39.8906 18.8125 39.0156
Q14.8906 38.1406 10.7969 36.2812
z
" id="BitstreamVeraSans-Roman-35"/>
      </defs>
      <g transform="translate(98.5265401786 266.6378125)scale(0.14 -0.14)">
       <use xlink:href="#BitstreamVeraSans-Roman-35"/>
      </g>
     </g>
    </g>
    <g id="xtick_3">
     <g id="line2d_5">
      <g>
       <use style="stroke:#000000;stroke-width:0.5;" x="149.657142857" xlink:href="#mc7db9fdffb" y="252.0"/>
      </g>
     </g>
     <g id="text_3">
      <!-- 10 -->
      <defs>
       <path d="
M12.4062 8.29688
L28.5156 8.29688
L28.5156 63.9219
L10.9844 60.4062
L10.9844 69.3906
L28.4219 72.9062
L38.2812 72.9062
L38.2812 8.29688
L54.3906 8.29688
L54.3906 0
L12.4062 0
z
" id="BitstreamVeraSans-Roman-31"/>
      </defs>
      <g transform="translate(141.983392857 266.6378125)scale(0.14 -0.14)">
       <use xlink:href="#BitstreamVeraSans-Roman-31"/>
       <use x="63.623046875" xlink:href="#BitstreamVeraSans-Roman-30"/>
      </g>
     </g>
    </g>
    <g id="xtick_4">
     <g id="line2d_6">
      <g>
       <use style="stroke:#000000;stroke-width:0.5;" x="197.485714286" xlink:href="#mc7db9fdffb" y="252.0"/>
      </g>
     </g>
     <g id="text_4">
      <!-- 15 -->
      <g transform="translate(189.958526786 266.6378125)scale(0.14 -0.14)">
       <use xlink:href="#BitstreamVeraSans-Roman-31"/>
       <use x="63.623046875" xlink:href="#BitstreamVeraSans-Roman-35"/>
      </g>
     </g>
    </g>
    <g id="xtick_5">
     <g id="line2d_7">
      <g>
       <use style="stroke:#000000;stroke-width:0.5;" x="245.314285714" xlink:href="#mc7db9fdffb" y="252.0"/>
      </g>
     </g>
     <g id="text_5">
      <!-- 20 -->
      <defs>
       <path d="
M19.1875 8.29688
L53.6094 8.29688
L53.6094 0
L7.32812 0
L7.32812 8.29688
Q12.9375 14.1094 22.625 23.8906
Q32.3281 33.6875 34.8125 36.5312
Q39.5469 41.8438 41.4219 45.5312
Q43.3125 49.2188 43.3125 52.7812
Q43.3125 58.5938 39.2344 62.25
Q35.1562 65.9219 28.6094 65.9219
Q23.9688 65.9219 18.8125 64.3125
Q13.6719 62.7031 7.8125 59.4219
L7.8125 69.3906
Q13.7656 71.7812 18.9375 73
Q24.125 74.2188 28.4219 74.2188
Q39.75 74.2188 46.4844 68.5469
Q53.2188 62.8906 53.2188 53.4219
Q53.2188 48.9219 51.5312 44.8906
Q49.8594 40.875 45.4062 35.4062
Q44.1875 33.9844 37.6406 27.2188
Q31.1094 20.4531 19.1875 8.29688" id="BitstreamVeraSans-Roman-32"/>
      </defs>
      <g transform="translate(237.384598214 266.6378125)scale(0.14 -0.14)">
       <use xlink:href="#BitstreamVeraSans-Roman-32"/>
       <use x="63.623046875" xlink:href="#BitstreamVeraSans-Roman-30"/>
      </g>
     </g>
    </g>
    <g id="xtick_6">
     <g id="line2d_8">
      <g>
       <use style="stroke:#000000;stroke-width:0.5;" x="293.142857143" xlink:href="#mc7db9fdffb" y="252.0"/>
      </g>
     </g>
     <g id="text_6">
      <!-- 25 -->
      <g transform="translate(285.359732143 266.6378125)scale(0.14 -0.14)">
       <use xlink:href="#BitstreamVeraSans-Roman-32"/>
       <use x="63.623046875" xlink:href="#BitstreamVeraSans-Roman-35"/>
      </g>
     </g>
    </g>
    <g id="xtick_7">
     <g id="line2d_9">
      <g>
       <use style="stroke:#000000;stroke-width:0.5;" x="340.971428571" xlink:href="#mc7db9fdffb" y="252.0"/>
      </g>
     </g>
     <g id="text_7">
      <!-- 30 -->
      <defs>
       <path d="
M40.5781 39.3125
Q47.6562 37.7969 51.625 33
Q55.6094 28.2188 55.6094 21.1875
Q55.6094 10.4062 48.1875 4.48438
Q40.7656 -1.42188 27.0938 -1.42188
Q22.5156 -1.42188 17.6562 -0.515625
Q12.7969 0.390625 7.625 2.20312
L7.625 11.7188
Q11.7188 9.32812 16.5938 8.10938
Q21.4844 6.89062 26.8125 6.89062
Q36.0781 6.89062 40.9375 10.5469
Q45.7969 14.2031 45.7969 21.1875
Q45.7969 27.6406 41.2812 31.2656
Q36.7656 34.9062 28.7188 34.9062
L20.2188 34.9062
L20.2188 43.0156
L29.1094 43.0156
Q36.375 43.0156 40.2344 45.9219
Q44.0938 48.8281 44.0938 54.2969
Q44.0938 59.9062 40.1094 62.9062
Q36.1406 65.9219 28.7188 65.9219
Q24.6562 65.9219 20.0156 65.0312
Q15.375 64.1562 9.8125 62.3125
L9.8125 71.0938
Q15.4375 72.6562 20.3438 73.4375
Q25.25 74.2188 29.5938 74.2188
Q40.8281 74.2188 47.3594 69.1094
Q53.9062 64.0156 53.9062 55.3281
Q53.9062 49.2656 50.4375 45.0938
Q46.9688 40.9219 40.5781 39.3125" id="BitstreamVeraSans-Roman-33"/>
      </defs>
      <g transform="translate(333.062522321 266.6378125)scale(0.14 -0.14)">
       <use xlink:href="#BitstreamVeraSans-Roman-33"/>
       <use x="63.623046875" xlink:href="#BitstreamVeraSans-Roman-30"/>
      </g>
     </g>
    </g>
    <g id="xtick_8">
     <g id="line2d_10">
      <g>
       <use style="stroke:#000000;stroke-width:0.5;" x="388.8" xlink:href="#mc7db9fdffb" y="252.0"/>
      </g>
     </g>
     <g id="text_8">
      <!-- 35 -->
      <g transform="translate(381.03765625 266.6378125)scale(0.14 -0.14)">
       <use xlink:href="#BitstreamVeraSans-Roman-33"/>
       <use x="63.623046875" xlink:href="#BitstreamVeraSans-Roman-35"/>
      </g>
     </g>
    </g>
    <g id="text_9">
     <!-- time (s) -->
     <defs>
      <path d="
M44.2812 53.0781
L44.2812 44.5781
Q40.4844 46.5312 36.375 47.5
Q32.2812 48.4844 27.875 48.4844
Q21.1875 48.4844 17.8438 46.4375
Q14.5 44.3906 14.5 40.2812
Q14.5 37.1562 16.8906 35.375
Q19.2812 33.5938 26.5156 31.9844
L29.5938 31.2969
Q39.1562 29.25 43.1875 25.5156
Q47.2188 21.7812 47.2188 15.0938
Q47.2188 7.46875 41.1875 3.01562
Q35.1562 -1.42188 24.6094 -1.42188
Q20.2188 -1.42188 15.4531 -0.5625
Q10.6875 0.296875 5.42188 2
L5.42188 11.2812
Q10.4062 8.6875 15.2344 7.39062
Q20.0625 6.10938 24.8125 6.10938
Q31.1562 6.10938 34.5625 8.28125
Q37.9844 10.4531 37.9844 14.4062
Q37.9844 18.0625 35.5156 20.0156
Q33.0625 21.9688 24.7031 23.7812
L21.5781 24.5156
Q13.2344 26.2656 9.51562 29.9062
Q5.8125 33.5469 5.8125 39.8906
Q5.8125 47.6094 11.2812 51.7969
Q16.75 56 26.8125 56
Q31.7812 56 36.1719 55.2656
Q40.5781 54.5469 44.2812 53.0781" id="BitstreamVeraSans-Roman-73"/>
      <path d="
M31 75.875
Q24.4688 64.6562 21.2812 53.6562
Q18.1094 42.6719 18.1094 31.3906
Q18.1094 20.125 21.3125 9.0625
Q24.5156 -2 31 -13.1875
L23.1875 -13.1875
Q15.875 -1.70312 12.2344 9.375
Q8.59375 20.4531 8.59375 31.3906
Q8.59375 42.2812 12.2031 53.3125
Q15.8281 64.3594 23.1875 75.875
z
" id="BitstreamVeraSans-Roman-28"/>
      <path id="BitstreamVeraSans-Roman-20"/>
      <path d="
M8.01562 75.875
L15.8281 75.875
Q23.1406 64.3594 26.7812 53.3125
Q30.4219 42.2812 30.4219 31.3906
Q30.4219 20.4531 26.7812 9.375
Q23.1406 -1.70312 15.8281 -13.1875
L8.01562 -13.1875
Q14.5 -2 17.7031 9.0625
Q20.9062 20.125 20.9062 31.3906
Q20.9062 42.6719 17.7031 53.6562
Q14.5 64.6562 8.01562 75.875" id="BitstreamVeraSans-Roman-29"/>
      <path d="
M9.42188 54.6875
L18.4062 54.6875
L18.4062 0
L9.42188 0
z

M9.42188 75.9844
L18.4062 75.9844
L18.4062 64.5938
L9.42188 64.5938
z
" id="BitstreamVeraSans-Roman-69"/>
      <path d="
M18.3125 70.2188
L18.3125 54.6875
L36.8125 54.6875
L36.8125 47.7031
L18.3125 47.7031
L18.3125 18.0156
Q18.3125 11.3281 20.1406 9.42188
Q21.9688 7.51562 27.5938 7.51562
L36.8125 7.51562
L36.8125 0
L27.5938 0
Q17.1875 0 13.2344 3.875
Q9.28125 7.76562 9.28125 18.0156
L9.28125 47.7031
L2.6875 47.7031
L2.6875 54.6875
L9.28125 54.6875
L9.28125 70.2188
z
" id="BitstreamVeraSans-Roman-74"/>
      <path d="
M52 44.1875
Q55.375 50.25 60.0625 53.125
Q64.75 56 71.0938 56
Q79.6406 56 84.2812 50.0156
Q88.9219 44.0469 88.9219 33.0156
L88.9219 0
L79.8906 0
L79.8906 32.7188
Q79.8906 40.5781 77.0938 44.375
Q74.3125 48.1875 68.6094 48.1875
Q61.625 48.1875 57.5625 43.5469
Q53.5156 38.9219 53.5156 30.9062
L53.5156 0
L44.4844 0
L44.4844 32.7188
Q44.4844 40.625 41.7031 44.4062
Q38.9219 48.1875 33.1094 48.1875
Q26.2188 48.1875 22.1562 43.5312
Q18.1094 38.875 18.1094 30.9062
L18.1094 0
L9.07812 0
L9.07812 54.6875
L18.1094 54.6875
L18.1094 46.1875
Q21.1875 51.2188 25.4844 53.6094
Q29.7812 56 35.6875 56
Q41.6562 56 45.8281 52.9688
Q50 49.9531 52 44.1875" id="BitstreamVeraSans-Roman-6d"/>
      <path d="
M56.2031 29.5938
L56.2031 25.2031
L14.8906 25.2031
Q15.4844 15.9219 20.4844 11.0625
Q25.4844 6.20312 34.4219 6.20312
Q39.5938 6.20312 44.4531 7.46875
Q49.3125 8.73438 54.1094 11.2812
L54.1094 2.78125
Q49.2656 0.734375 44.1875 -0.34375
Q39.1094 -1.42188 33.8906 -1.42188
Q20.7969 -1.42188 13.1562 6.1875
Q5.51562 13.8125 5.51562 26.8125
Q5.51562 40.2344 12.7656 48.1094
Q20.0156 56 32.3281 56
Q43.3594 56 49.7812 48.8906
Q56.2031 41.7969 56.2031 29.5938
M47.2188 32.2344
Q47.125 39.5938 43.0938 43.9844
Q39.0625 48.3906 32.4219 48.3906
Q24.9062 48.3906 20.3906 44.1406
Q15.875 39.8906 15.1875 32.1719
z
" id="BitstreamVeraSans-Roman-65"/>
     </defs>
     <g transform="translate(202.43828125 282.1478125)scale(0.1 -0.1)">
      <use xlink:href="#BitstreamVeraSans-Roman-74"/>
      <use x="39.208984375" xlink:href="#BitstreamVeraSans-Roman-69"/>
      <use x="66.9921875" xlink:href="#BitstreamVeraSans-Roman-6d"/>
      <use x="164.404296875" xlink:href="#BitstreamVeraSans-Roman-65"/>
      <use x="225.927734375" xlink:href="#BitstreamVeraSans-Roman-20"/>
      <use x="257.71484375" xlink:href="#BitstreamVeraSans-Roman-28"/>
      <use x="296.728515625" xlink:href="#BitstreamVeraSans-Roman-73"/>
      <use x="348.828125" xlink:href="#BitstreamVeraSans-Roman-29"/>
     </g>
    </g>
   </g>
   <g id="matplotlib.axis_2">
    <g id="ytick_1">
     <g id="line2d_11">
      <defs>
       <path d="
M0 0
L4 0" id="md7965d1ba0" style="stroke:#000000;stroke-width:0.5;"/>
      </defs>
      <g>
       <use style="stroke:#000000;stroke-width:0.5;" x="54.0" xlink:href="#md7965d1ba0" y="252.0"/>
      </g>
     </g>
     <g id="text_10">
      <!-- −5 -->
      <defs>
       <path d="
M10.5938 35.5
L73.1875 35.5
L73.1875 27.2031
L10.5938 27.2031
z
" id="BitstreamVeraSans-Roman-2212"/>
      </defs>
      <g transform="translate(32.066875 255.863125)scale(0.14 -0.14)">
       <use xlink:href="#BitstreamVeraSans-Roman-2212"/>
       <use x="83.7890625" xlink:href="#BitstreamVeraSans-Roman-35"/>
      </g>
     </g>
    </g>
    <g id="ytick_2">
     <g id="line2d_12">
      <g>
       <use style="stroke:#000000;stroke-width:0.5;" x="54.0" xlink:href="#md7965d1ba0" y="227.2"/>
      </g>
     </g>
     <g id="text_11">
      <!-- −4 -->
      <defs>
       <path d="
M37.7969 64.3125
L12.8906 25.3906
L37.7969 25.3906
z

M35.2031 72.9062
L47.6094 72.9062
L47.6094 25.3906
L58.0156 25.3906
L58.0156 17.1875
L47.6094 17.1875
L47.6094 0
L37.7969 0
L37.7969 17.1875
L4.89062 17.1875
L4.89062 26.7031
z
" id="BitstreamVeraSans-Roman-34"/>
      </defs>
      <g transform="translate(31.629375 231.063125)scale(0.14 -0.14)">
       <use xlink:href="#BitstreamVeraSans-Roman-2212"/>
       <use x="83.7890625" xlink:href="#BitstreamVeraSans-Roman-34"/>
      </g>
     </g>
    </g>
    <g id="ytick_3">
     <g id="line2d_13">
      <g>
       <use style="stroke:#000000;stroke-width:0.5;" x="54.0" xlink:href="#md7965d1ba0" y="202.4"/>
      </g>
     </g>
     <g id="text_12">
      <!-- −3 -->
      <g transform="translate(31.96625 206.263125)scale(0.14 -0.14)">
       <use xlink:href="#BitstreamVeraSans-Roman-2212"/>
       <use x="83.7890625" xlink:href="#BitstreamVeraSans-Roman-33"/>
      </g>
     </g>
    </g>
    <g id="ytick_4">
     <g id="line2d_14">
      <g>
       <use style="stroke:#000000;stroke-width:0.5;" x="54.0" xlink:href="#md7965d1ba0" y="177.6"/>
      </g>
     </g>
     <g id="text_13">
      <!-- −2 -->
      <g transform="translate(32.24625 181.463125)scale(0.14 -0.14)">
       <use xlink:href="#BitstreamVeraSans-Roman-2212"/>
       <use x="83.7890625" xlink:href="#BitstreamVeraSans-Roman-32"/>
      </g>
     </g>
    </g>
    <g id="ytick_5">
     <g id="line2d_15">
      <g>
       <use style="stroke:#000000;stroke-width:0.5;" x="54.0" xlink:href="#md7965d1ba0" y="152.8"/>
      </g>
     </g>
     <g id="text_14">
      <!-- −1 -->
      <g transform="translate(32.136875 156.663125)scale(0.14 -0.14)">
       <use xlink:href="#BitstreamVeraSans-Roman-2212"/>
       <use x="83.7890625" xlink:href="#BitstreamVeraSans-Roman-31"/>
      </g>
     </g>
    </g>
    <g id="ytick_6">
     <g id="line2d_16">
      <g>
       <use style="stroke:#000000;stroke-width:0.5;" x="54.0" xlink:href="#md7965d1ba0" y="128.0"/>
      </g>
     </g>
     <g id="text_15">
      <!-- 0 -->
      <g transform="translate(42.9453125 131.863125)scale(0.14 -0.14)">
       <use xlink:href="#BitstreamVeraSans-Roman-30"/>
      </g>
     </g>
    </g>
    <g id="ytick_7">
     <g id="line2d_17">
      <g>
       <use style="stroke:#000000;stroke-width:0.5;" x="54.0" xlink:href="#md7965d1ba0" y="103.2"/>
      </g>
     </g>
     <g id="text_16">
      <!-- 1 -->
      <g transform="translate(43.923125 107.063125)scale(0.14 -0.14)">
       <use xlink:href="#BitstreamVeraSans-Roman-31"/>
      </g>
     </g>
    </g>
    <g id="ytick_8">
     <g id="line2d_18">
      <g>
       <use style="stroke:#000000;stroke-width:0.5;" x="54.0" xlink:href="#md7965d1ba0" y="78.4"/>
      </g>
     </g>
     <g id="text_17">
      <!-- 2 -->
      <g transform="translate(43.520625 82.263125)scale(0.14 -0.14)">
       <use xlink:href="#BitstreamVeraSans-Roman-32"/>
      </g>
     </g>
    </g>
    <g id="ytick_9">
     <g id="line2d_19">
      <g>
       <use style="stroke:#000000;stroke-width:0.5;" x="54.0" xlink:href="#md7965d1ba0" y="53.6"/>
      </g>
     </g>
     <g id="text_18">
      <!-- 3 -->
      <g transform="translate(43.2821875 57.463125)scale(0.14 -0.14)">
       <use xlink:href="#BitstreamVeraSans-Roman-33"/>
      </g>
     </g>
    </g>
    <g id="ytick_10">
     <g id="line2d_20">
      <g>
       <use style="stroke:#000000;stroke-width:0.5;" x="54.0" xlink:href="#md7965d1ba0" y="28.8"/>
      </g>
     </g>
     <g id="text_19">
      <!-- 4 -->
      <g transform="translate(42.5625 32.663125)scale(0.14 -0.14)">
       <use xlink:href="#BitstreamVeraSans-Roman-34"/>
      </g>
     </g>
    </g>
    <g id="text_20">
     <!-- magnitude (units) -->
     <defs>
      <path d="
M54.8906 33.0156
L54.8906 0
L45.9062 0
L45.9062 32.7188
Q45.9062 40.4844 42.875 44.3281
Q39.8438 48.1875 33.7969 48.1875
Q26.5156 48.1875 22.3125 43.5469
Q18.1094 38.9219 18.1094 30.9062
L18.1094 0
L9.07812 0
L9.07812 54.6875
L18.1094 54.6875
L18.1094 46.1875
Q21.3438 51.125 25.7031 53.5625
Q30.0781 56 35.7969 56
Q45.2188 56 50.0469 50.1719
Q54.8906 44.3438 54.8906 33.0156" id="BitstreamVeraSans-Roman-6e"/>
      <path d="
M45.4062 27.9844
Q45.4062 37.75 41.375 43.1094
Q37.3594 48.4844 30.0781 48.4844
Q22.8594 48.4844 18.8281 43.1094
Q14.7969 37.75 14.7969 27.9844
Q14.7969 18.2656 18.8281 12.8906
Q22.8594 7.51562 30.0781 7.51562
Q37.3594 7.51562 41.375 12.8906
Q45.4062 18.2656 45.4062 27.9844
M54.3906 6.78125
Q54.3906 -7.17188 48.1875 -13.9844
Q42 -20.7969 29.2031 -20.7969
Q24.4688 -20.7969 20.2656 -20.0938
Q16.0625 -19.3906 12.1094 -17.9219
L12.1094 -9.1875
Q16.0625 -11.3281 19.9219 -12.3438
Q23.7812 -13.375 27.7812 -13.375
Q36.625 -13.375 41.0156 -8.76562
Q45.4062 -4.15625 45.4062 5.17188
L45.4062 9.625
Q42.625 4.78125 38.2812 2.39062
Q33.9375 0 27.875 0
Q17.8281 0 11.6719 7.65625
Q5.51562 15.3281 5.51562 27.9844
Q5.51562 40.6719 11.6719 48.3281
Q17.8281 56 27.875 56
Q33.9375 56 38.2812 53.6094
Q42.625 51.2188 45.4062 46.3906
L45.4062 54.6875
L54.3906 54.6875
z
" id="BitstreamVeraSans-Roman-67"/>
      <path d="
M45.4062 46.3906
L45.4062 75.9844
L54.3906 75.9844
L54.3906 0
L45.4062 0
L45.4062 8.20312
Q42.5781 3.32812 38.25 0.953125
Q33.9375 -1.42188 27.875 -1.42188
Q17.9688 -1.42188 11.7344 6.48438
Q5.51562 14.4062 5.51562 27.2969
Q5.51562 40.1875 11.7344 48.0938
Q17.9688 56 27.875 56
Q33.9375 56 38.25 53.625
Q42.5781 51.2656 45.4062 46.3906
M14.7969 27.2969
Q14.7969 17.3906 18.875 11.75
Q22.9531 6.10938 30.0781 6.10938
Q37.2031 6.10938 41.2969 11.75
Q45.4062 17.3906 45.4062 27.2969
Q45.4062 37.2031 41.2969 42.8438
Q37.2031 48.4844 30.0781 48.4844
Q22.9531 48.4844 18.875 42.8438
Q14.7969 37.2031 14.7969 27.2969" id="BitstreamVeraSans-Roman-64"/>
      <path d="
M34.2812 27.4844
Q23.3906 27.4844 19.1875 25
Q14.9844 22.5156 14.9844 16.5
Q14.9844 11.7188 18.1406 8.90625
Q21.2969 6.10938 26.7031 6.10938
Q34.1875 6.10938 38.7031 11.4062
Q43.2188 16.7031 43.2188 25.4844
L43.2188 27.4844
z

M52.2031 31.2031
L52.2031 0
L43.2188 0
L43.2188 8.29688
Q40.1406 3.32812 35.5469 0.953125
Q30.9531 -1.42188 24.3125 -1.42188
Q15.9219 -1.42188 10.9531 3.29688
Q6 8.01562 6 15.9219
Q6 25.1406 12.1719 29.8281
Q18.3594 34.5156 30.6094 34.5156
L43.2188 34.5156
L43.2188 35.4062
Q43.2188 41.6094 39.1406 45
Q35.0625 48.3906 27.6875 48.3906
Q23 48.3906 18.5469 47.2656
Q14.1094 46.1406 10.0156 43.8906
L10.0156 52.2031
Q14.9375 54.1094 19.5781 55.0469
Q24.2188 56 28.6094 56
Q40.4844 56 46.3438 49.8438
Q52.2031 43.7031 52.2031 31.2031" id="BitstreamVeraSans-Roman-61"/>
      <path d="
M8.5 21.5781
L8.5 54.6875
L17.4844 54.6875
L17.4844 21.9219
Q17.4844 14.1562 20.5 10.2656
Q23.5312 6.39062 29.5938 6.39062
Q36.8594 6.39062 41.0781 11.0312
Q45.3125 15.6719 45.3125 23.6875
L45.3125 54.6875
L54.2969 54.6875
L54.2969 0
L45.3125 0
L45.3125 8.40625
Q42.0469 3.42188 37.7188 1
Q33.4062 -1.42188 27.6875 -1.42188
Q18.2656 -1.42188 13.375 4.4375
Q8.5 10.2969 8.5 21.5781" id="BitstreamVeraSans-Roman-75"/>
     </defs>
     <g transform="translate(24.5496875 184.7984375)rotate(-90.0)scale(0.1 -0.1)">
      <use xlink:href="#BitstreamVeraSans-Roman-6d"/>
      <use x="97.412109375" xlink:href="#BitstreamVeraSans-Roman-61"/>
      <use x="158.69140625" xlink:href="#BitstreamVeraSans-Roman-67"/>
      <use x="222.16796875" xlink:href="#BitstreamVeraSans-Roman-6e"/>
      <use x="285.546875" xlink:href="#BitstreamVeraSans-Roman-69"/>
      <use x="313.330078125" xlink:href="#BitstreamVeraSans-Roman-74"/>
      <use x="352.5390625" xlink:href="#BitstreamVeraSans-Roman-75"/>
      <use x="415.91796875" xlink:href="#BitstreamVeraSans-Roman-64"/>
      <use x="479.39453125" xlink:href="#BitstreamVeraSans-Roman-65"/>
      <use x="540.91796875" xlink:href="#BitstreamVeraSans-Roman-20"/>
      <use x="572.705078125" xlink:href="#BitstreamVeraSans-Roman-28"/>
      <use x="611.71875" xlink:href="#BitstreamVeraSans-Roman-75"/>
      <use x="675.09765625" xlink:href="#BitstreamVeraSans-Roman-6e"/>
      <use x="738.4765625" xlink:href="#BitstreamVeraSans-Roman-69"/>
      <use x="766.259765625" xlink:href="#BitstreamVeraSans-Roman-74"/>
      <use x="805.46875" xlink:href="#BitstreamVeraSans-Roman-73"/>
      <use x="857.568359375" xlink:href="#BitstreamVeraSans-Roman-29"/>
     </g>
    </g>
   </g>
   <g id="text_21">
    <!-- Magnitude and Filter (Pushups) -->
    <defs>
     <path d="
M18.1094 8.20312
L18.1094 -20.7969
L9.07812 -20.7969
L9.07812 54.6875
L18.1094 54.6875
L18.1094 46.3906
Q20.9531 51.2656 25.2656 53.625
Q29.5938 56 35.5938 56
Q45.5625 56 51.7812 48.0938
Q58.0156 40.1875 58.0156 27.2969
Q58.0156 14.4062 51.7812 6.48438
Q45.5625 -1.42188 35.5938 -1.42188
Q29.5938 -1.42188 25.2656 0.953125
Q20.9531 3.32812 18.1094 8.20312
M48.6875 27.2969
Q48.6875 37.2031 44.6094 42.8438
Q40.5312 48.4844 33.4062 48.4844
Q26.2656 48.4844 22.1875 42.8438
Q18.1094 37.2031 18.1094 27.2969
Q18.1094 17.3906 22.1875 11.75
Q26.2656 6.10938 33.4062 6.10938
Q40.5312 6.10938 44.6094 11.75
Q48.6875 17.3906 48.6875 27.2969" id="BitstreamVeraSans-Roman-70"/>
     <path d="
M9.8125 72.9062
L51.7031 72.9062
L51.7031 64.5938
L19.6719 64.5938
L19.6719 43.1094
L48.5781 43.1094
L48.5781 34.8125
L19.6719 34.8125
L19.6719 0
L9.8125 0
z
" id="BitstreamVeraSans-Roman-46"/>
     <path d="
M19.6719 64.7969
L19.6719 37.4062
L32.0781 37.4062
Q38.9688 37.4062 42.7188 40.9688
Q46.4844 44.5312 46.4844 51.125
Q46.4844 57.6719 42.7188 61.2344
Q38.9688 64.7969 32.0781 64.7969
z

M9.8125 72.9062
L32.0781 72.9062
Q44.3438 72.9062 50.6094 67.3594
Q56.8906 61.8125 56.8906 51.125
Q56.8906 40.3281 50.6094 34.8125
Q44.3438 29.2969 32.0781 29.2969
L19.6719 29.2969
L19.6719 0
L9.8125 0
z
" id="BitstreamVeraSans-Roman-50"/>
     <path d="
M54.8906 33.0156
L54.8906 0
L45.9062 0
L45.9062 32.7188
Q45.9062 40.4844 42.875 44.3281
Q39.8438 48.1875 33.7969 48.1875
Q26.5156 48.1875 22.3125 43.5469
Q18.1094 38.9219 18.1094 30.9062
L18.1094 0
L9.07812 0
L9.07812 75.9844
L18.1094 75.9844
L18.1094 46.1875
Q21.3438 51.125 25.7031 53.5625
Q30.0781 56 35.7969 56
Q45.2188 56 50.0469 50.1719
Q54.8906 44.3438 54.8906 33.0156" id="BitstreamVeraSans-Roman-68"/>
     <path d="
M9.42188 75.9844
L18.4062 75.9844
L18.4062 0
L9.42188 0
z
" id="BitstreamVeraSans-Roman-6c"/>
     <path d="
M9.8125 72.9062
L24.5156 72.9062
L43.1094 23.2969
L61.8125 72.9062
L76.5156 72.9062
L76.5156 0
L66.8906 0
L66.8906 64.0156
L48.0938 14.0156
L38.1875 14.0156
L19.3906 64.0156
L19.3906 0
L9.8125 0
z
" id="BitstreamVeraSans-Roman-4d"/>
     <path d="
M41.1094 46.2969
Q39.5938 47.1719 37.8125 47.5781
Q36.0312 48 33.8906 48
Q26.2656 48 22.1875 43.0469
Q18.1094 38.0938 18.1094 28.8125
L18.1094 0
L9.07812 0
L9.07812 54.6875
L18.1094 54.6875
L18.1094 46.1875
Q20.9531 51.1719 25.4844 53.5781
Q30.0312 56 36.5312 56
Q37.4531 56 38.5781 55.875
Q39.7031 55.7656 41.0625 55.5156
z
" id="BitstreamVeraSans-Roman-72"/>
    </defs>
    <g transform="translate(128.5959375 23.8)scale(0.12 -0.12)">
     <use xlink:href="#BitstreamVeraSans-Roman-4d"/>
     <use x="86.279296875" xlink:href="#BitstreamVeraSans-Roman-61"/>
     <use x="147.55859375" xlink:href="#BitstreamVeraSans-Roman-67"/>
     <use x="211.03515625" xlink:href="#BitstreamVeraSans-Roman-6e"/>
     <use x="274.4140625" xlink:href="#BitstreamVeraSans-Roman-69"/>
     <use x="302.197265625" xlink:href="#BitstreamVeraSans-Roman-74"/>
     <use x="341.40625" xlink:href="#BitstreamVeraSans-Roman-75"/>
     <use x="404.78515625" xlink:href="#BitstreamVeraSans-Roman-64"/>
     <use x="468.26171875" xlink:href="#BitstreamVeraSans-Roman-65"/>
     <use x="529.78515625" xlink:href="#BitstreamVeraSans-Roman-20"/>
     <use x="561.572265625" xlink:href="#BitstreamVeraSans-Roman-61"/>
     <use x="622.8515625" xlink:href="#BitstreamVeraSans-Roman-6e"/>
     <use x="686.23046875" xlink:href="#BitstreamVeraSans-Roman-64"/>
     <use x="749.70703125" xlink:href="#BitstreamVeraSans-Roman-20"/>
     <use x="781.494140625" xlink:href="#BitstreamVeraSans-Roman-46"/>
     <use x="831.763671875" xlink:href="#BitstreamVeraSans-Roman-69"/>
     <use x="859.546875" xlink:href="#BitstreamVeraSans-Roman-6c"/>
     <use x="887.330078125" xlink:href="#BitstreamVeraSans-Roman-74"/>
     <use x="926.5390625" xlink:href="#BitstreamVeraSans-Roman-65"/>
     <use x="988.0625" xlink:href="#BitstreamVeraSans-Roman-72"/>
     <use x="1029.17578125" xlink:href="#BitstreamVeraSans-Roman-20"/>
     <use x="1060.962890625" xlink:href="#BitstreamVeraSans-Roman-28"/>
     <use x="1099.9765625" xlink:href="#BitstreamVeraSans-Roman-50"/>
     <use x="1158.529296875" xlink:href="#BitstreamVeraSans-Roman-75"/>
     <use x="1221.908203125" xlink:href="#BitstreamVeraSans-Roman-73"/>
     <use x="1274.0078125" xlink:href="#BitstreamVeraSans-Roman-68"/>
     <use x="1337.38671875" xlink:href="#BitstreamVeraSans-Roman-75"/>
     <use x="1400.765625" xlink:href="#BitstreamVeraSans-Roman-70"/>
     <use x="1464.2421875" xlink:href="#BitstreamVeraSans-Roman-73"/>
     <use x="1516.341796875" xlink:href="#BitstreamVeraSans-Roman-29"/>
    </g>
   </g>
   <g id="legend_1">
    <g id="patch_7">
     <path d="
M294.441 73.6275
L382.8 73.6275
L382.8 34.8
L294.441 34.8
z
" style="fill:#ffffff;stroke:#000000;stroke-linejoin:miter;"/>
    </g>
    <g id="line2d_21">
     <path d="
M302.841 44.5181
L319.641 44.5181" style="fill:none;stroke:#0000ff;stroke-linecap:square;"/>
    </g>
    <g id="line2d_22"/>
    <g id="text_22">
     <!-- Original -->
     <defs>
      <path d="
M39.4062 66.2188
Q28.6562 66.2188 22.3281 58.2031
Q16.0156 50.2031 16.0156 36.375
Q16.0156 22.6094 22.3281 14.5938
Q28.6562 6.59375 39.4062 6.59375
Q50.1406 6.59375 56.4219 14.5938
Q62.7031 22.6094 62.7031 36.375
Q62.7031 50.2031 56.4219 58.2031
Q50.1406 66.2188 39.4062 66.2188
M39.4062 74.2188
Q54.7344 74.2188 63.9062 63.9375
Q73.0938 53.6562 73.0938 36.375
Q73.0938 19.1406 63.9062 8.85938
Q54.7344 -1.42188 39.4062 -1.42188
Q24.0312 -1.42188 14.8125 8.82812
Q5.60938 19.0938 5.60938 36.375
Q5.60938 53.6562 14.8125 63.9375
Q24.0312 74.2188 39.4062 74.2188" id="BitstreamVeraSans-Roman-4f"/>
     </defs>
     <g transform="translate(332.840625 48.718125)scale(0.12 -0.12)">
      <use xlink:href="#BitstreamVeraSans-Roman-4f"/>
      <use x="78.7109375" xlink:href="#BitstreamVeraSans-Roman-72"/>
      <use x="119.82421875" xlink:href="#BitstreamVeraSans-Roman-69"/>
      <use x="147.607421875" xlink:href="#BitstreamVeraSans-Roman-67"/>
      <use x="211.083984375" xlink:href="#BitstreamVeraSans-Roman-69"/>
      <use x="238.8671875" xlink:href="#BitstreamVeraSans-Roman-6e"/>
      <use x="302.24609375" xlink:href="#BitstreamVeraSans-Roman-61"/>
      <use x="363.525390625" xlink:href="#BitstreamVeraSans-Roman-6c"/>
     </g>
    </g>
    <g id="line2d_23">
     <path d="
M302.841 62.1319
L319.641 62.1319" style="fill:none;stroke:#ff0000;stroke-linecap:square;"/>
    </g>
    <g id="line2d_24"/>
    <g id="text_23">
     <!-- Filtered -->
     <g transform="translate(332.840625 66.331875)scale(0.12 -0.12)">
      <use xlink:href="#BitstreamVeraSans-Roman-46"/>
      <use x="50.26953125" xlink:href="#BitstreamVeraSans-Roman-69"/>
      <use x="78.052734375" xlink:href="#BitstreamVeraSans-Roman-6c"/>
      <use x="105.8359375" xlink:href="#BitstreamVeraSans-Roman-74"/>
      <use x="145.044921875" xlink:href="#BitstreamVeraSans-Roman-65"/>
      <use x="206.568359375" xlink:href="#BitstreamVeraSans-Roman-72"/>
      <use x="245.431640625" xlink:href="#BitstreamVeraSans-Roman-65"/>
      <use x="306.955078125" xlink:href="#BitstreamVeraSans-Roman-64"/>
     </g>
    </g>
   </g>
  </g>
 </g>
 <defs>
  <clipPath id="p124b8dd147">
   <rect height="223.2" width="334.8" x="54.0" y="28.8"/>
  </clipPath>
 </defs>
</svg>
